<?xml version="1.0" standalone="no"?>
<!DOCTYPE svg PUBLIC "-//W3C//DTD SVG 1.1//EN" "http://www.w3.org/Graphics/SVG/1.1/DTD/svg11.dtd" >
<svg xmlns="http://www.w3.org/2000/svg">
<metadata>Generated by IcoMoon</metadata>
<defs>
<font id="icomoon" horiz-adv-x="1024">
<font-face units-per-em="1024" ascent="960" descent="-64" />
<missing-glyph horiz-adv-x="1024" />
<glyph unicode="&#x20;" horiz-adv-x="512" d="" />
<glyph unicode="&#xe023;" glyph-name="time" d="M3.413 460.8q0 138.24 68.267 255.147t185.173 185.173 255.147 68.267 255.147-68.267 185.173-185.173 68.267-255.147-68.267-255.147-185.173-185.173-255.147-68.267-255.147 68.267-185.173 185.173-68.267 255.147zM158.72 460.8q0-145.92 103.68-249.6t249.6-103.68 249.6 103.68 103.68 249.6-103.68 249.6-249.6 103.68-249.6-103.68-103.68-249.6zM426.667 375.467v341.333h85.333v-256h170.667v-85.333h-256z" />
<glyph unicode="&#xe02b;" glyph-name="radio-unchecked" d="M512 960c-282.78 0-512-229.262-512-512.086 0-282.738 229.22-511.958 512-511.958s512 229.22 512 511.958c0 282.824-229.22 512.086-512 512.086zM512 140.758c-169.628 0-307.2 137.528-307.2 307.158 0 169.714 137.572 307.242 307.2 307.242 169.672 0 307.2-137.528 307.2-307.242 0-169.63-137.528-307.158-307.2-307.158z" />
<glyph unicode="&#xe032;" glyph-name="radio-checked" d="M512 960c-282.78 0-512-229.176-512-511.958 0-282.824 229.22-512.086 512-512.086s512 229.262 512 512.086c0 282.782-229.22 511.958-512 511.958zM512 140.8c-169.628 0-307.2 137.572-307.2 307.242 0 169.586 137.572 307.086 307.2 307.086 169.672 0 307.2-137.528 307.2-307.086 0-169.67-137.528-307.242-307.2-307.242zM512 601.6c-84.836 0-153.6-68.764-153.6-153.558 0-84.878 68.764-153.642 153.6-153.642s153.6 68.764 153.6 153.642c0 84.794-68.764 153.558-153.6 153.558z" />
<glyph unicode="&#xe033;" glyph-name="checkbox-unchecked" d="M256 960h512c141.426 0 256-114.574 256-256v-512.042c0-141.426-114.574-256-256-256h-512c-141.354 0-256 114.574-256 256v512.042c0 141.426 114.646 256 256 256z" />
<glyph unicode="&#xe034;" glyph-name="checkbox-checked" d="M768 960h-512c-141.354 0-256-114.646-256-256v-512.042c0-141.426 114.646-256 256-256h512c141.426 0 256 114.574 256 256v512.042c0 141.354-114.602 256-256 256zM842.866 552.092l-367.304-367.304c-7.48-7.48-19.698-7.48-27.136 0l-54.314 54.742c-7.48 7.566-19.698 19.926-27.136 27.448l-126.308 132.764c-3.698 3.784-5.674 8.946-5.674 13.866 0 5.006 2.006 9.728 5.674 13.512l55.338 49.906c3.74 3.826 8.746 5.632 13.71 5.632 4.85 0 9.728-1.892 13.468-5.632l125.24-127.8c7.41-7.638 19.656-7.638 27.136 0l285.896 285.028c7.48 7.48 19.656 7.48 27.094 0l54.314-54.784c7.412-7.452 7.412-19.896 0.002-27.378z" />
<glyph unicode="&#xe109;" glyph-name="calendar" d="M32-8.533q0-17.067 12.373-29.867t30.293-12.8h853.333q17.92 0 30.293 12.8t12.373 29.867v640h-938.667v-640zM32 716.8h938.667v128q0 17.92-12.373 30.293t-30.293 12.373h-128v85.333h-85.333v-85.333h-426.667v85.333h-85.333v-85.333h-128q-17.92 0-30.293-12.373t-12.373-30.293v-128zM117.333 34.133v85.333h85.333v-85.333h-85.333zM117.333 204.8v85.333h85.333v-85.333h-85.333zM117.333 375.467v85.333h85.333v-85.333h-85.333zM288 34.133v85.333h85.333v-85.333h-85.333zM288 204.8v85.333h85.333v-85.333h-85.333zM288 375.467v85.333h85.333v-85.333h-85.333zM458.667 34.133v85.333h85.333v-85.333h-85.333zM458.667 204.8v85.333h85.333v-85.333h-85.333zM458.667 375.467v85.333h85.333v-85.333h-85.333zM629.333 34.133v85.333h85.333v-85.333h-85.333zM629.333 204.8v85.333h85.333v-85.333h-85.333zM629.333 375.467v85.333h85.333v-85.333h-85.333zM800 34.133v85.333h85.333v-85.333h-85.333zM800 204.8v85.333h85.333v-85.333h-85.333zM800 375.467v85.333h85.333v-85.333h-85.333z" />
<glyph unicode="&#xe113;" glyph-name="chevron-up" d="M6.4 299.52l193.707-193.707 300.373 301.227 301.227-301.227 192.853 193.707-493.227 494.080z" />
<glyph unicode="&#xe114;" glyph-name="chevron-down" d="M27.733 628.907l494.933-494.080 493.227 494.080-192.853 193.707-301.227-301.227-300.373 301.227z" />
<glyph unicode="&#xe600;" glyph-name="volume" d="M843.904 817.109l-47.403-70.997c86.656-70.4 142.165-177.749 142.165-298.112 0-120.405-55.509-227.755-142.165-298.155l47.403-70.955c109.483 85.845 180.096 219.093 180.096 369.109 0 149.973-70.571 283.221-180.096 369.109zM748.8 674.688l-47.872-71.68c41.301-38.955 67.413-93.781 67.413-155.051s-26.112-116.139-67.413-155.093l47.872-71.68c63.872 54.869 104.533 136.021 104.533 226.816 0 90.752-40.619 171.904-104.533 226.688zM512 917.333c-50.219 0-65.408-29.184-65.408-29.184s-130.603-143.488-220.544-206.805c-16.555-10.539-34.731-20.011-66.901-20.011h-73.813c-47.104 0-85.333-38.229-85.333-85.333v-256c0-47.104 38.229-85.333 85.333-85.333h73.813c32.171 0 50.347-9.472 66.859-20.011 89.941-63.317 220.544-206.848 220.544-206.848s15.232-29.141 65.451-29.141c47.104 0 85.333 38.187 85.333 85.333v768c0 47.147-38.229 85.333-85.333 85.333z" />
<glyph unicode="&#xe601;" glyph-name="menu" d="M991.936 822.217h-959.872c-17.6 0-32-15.36-32-34.176v-124.672c0-18.048 14.4-32.832 32-32.832h959.872c17.6 0 32 14.72 32 32.832v124.672c0 18.816-14.4 34.176-32 34.176zM991.936 502.217h-959.872c-17.6 0-32-15.36-32-34.24v-124.608c0-18.112 14.4-32.832 32-32.832h959.872c17.6 0 32 14.72 32 32.832v124.672c0 18.816-14.4 34.176-32 34.176zM991.936 182.217h-959.872c-17.6 0-32-15.36-32-34.24v-124.608c0-17.984 14.4-32.768 32-32.768h959.872c17.6 0 32 14.72 32 32.768v124.608c0 18.88-14.4 34.24-32 34.24z" />
<glyph unicode="&#xe602;" glyph-name="folder" d="M933.269 593.717h-842.535c-42.829 0-45.007-22.262-42.586-49.604l31.457-442.802c2.178-27.101 8.469-49.604 51.055-49.604h765.106c43.554 0 48.636 22.262 51.055 49.604l29.279 448.369c2.178 27.101 0 44.038-42.829 44.038zM923.833 711.558c-1.209 30.004-10.888 37.022-36.538 37.022 0 0-293.751 0-346.5 0s-59.039-0.726-98.966 42.104c-33.15 35.811-20.084 35.327-88.559 35.327-54.686 0-182.204 0-182.204 0-42.104 0-57.106 3.629-60.975-40.167-3.629-40.408-12.099-138.405-13.308-153.407h830.922l-3.872 79.125z" />
<glyph unicode="&#xe603;" glyph-name="excel" horiz-adv-x="1090" d="M903.234 194.486c9.148-35.462-5.578-119.555 109.897-99.075 115.473 20.482 67.049 153.083 67.049 153.083s-37.259 153.501-208.609 175.855l-270.071 1.091c0 0-117.34 0-160.179 165.768s-32.7 368.788-333.397 368.788c0 0-149.007 3.724-96.851-175.081 52.154-178.807 74.702-296.263 169.492-387.414 89.537-86.1 105.341-88.5 228.975-106.418 69.398-10.061 162.16 5.847 275.774 7.706 113.621 1.861 192.741-6.713 217.92-104.303zM530.727 85.935c0-82.797-94.821-149.935-189.972-149.935s-154.603 67.138-154.603 149.935c0 82.799 50.609 161.062 145.76 161.062 95.155 0 198.815-78.263 198.815-161.062zM844.111 799.271c50.411 23.407 126.328-35.335 161.514-111.108 35.191-75.77 16.32-142.085-34.084-165.487-50.398-23.403-106.051-0.134-145.154 73.68-56.094 105.879-32.667 179.51 17.724 202.915z" />
<glyph unicode="&#xe604;" glyph-name="video" d="M890.423 114.681v-0.577l-198.324 198.288v-125.672c0-39.802-32.273-72.039-72.039-72.039h-468.255c-39.766 0-72.039 32.238-72.039 72.039v504.275c0 39.766 32.273 72.004 72.039 72.004h468.255c39.766 0 72.039-32.238 72.039-72.004v-126.644l198.109 198.109v0.54c29.825 0 54.030-24.168 54.030-53.993v-540.294c0-29.788-24.097-53.885-53.813-54.030z" />
<glyph unicode="&#xe605;" glyph-name="photo" d="M304 352c0-114.876 93.124-208 208-208s208 93.124 208 208-93.124 208-208 208-208-93.124-208-208zM960 704h-224c-16 64-32 128-96 128h-256c-64 0-80-64-96-128h-224c-35.2 0-64-28.8-64-64v-576c0-35.2 28.8-64 64-64h896c35.2 0 64 28.8 64 64v576c0 35.2-28.8 64-64 64zM512 68c-156.85 0-284 127.148-284 284 0 156.85 127.15 284 284 284 156.852 0 284-127.15 284-284 0-156.852-127.146-284-284-284zM960 512h-128v64h128v-64z" />
<glyph unicode="&#xe606;" glyph-name="plus" d="M992 576h-352v352c0 17.664-14.304 32-32 32h-192c-17.696 0-32-14.336-32-32v-352h-352c-17.696 0-32-14.336-32-32v-192c0-17.696 14.304-32 32-32h352v-352c0-17.696 14.304-32 32-32h192c17.696 0 32 14.304 32 32v352h352c17.696 0 32 14.304 32 32v192c0 17.664-14.304 32-32 32z" />
<glyph unicode="&#xe607;" glyph-name="cog" d="M1024 351.906v192.188l-146.774 24.462c-5.958 18.132-13.222 35.668-21.694 52.5l86.454 121.034-135.896 135.898-120.826-86.304c-16.91 8.554-34.538 15.888-52.768 21.902l-24.402 146.414h-192.188l-24.402-146.416c-18.23-6.014-35.858-13.348-52.766-21.902l-120.828 86.304-135.898-135.898 86.454-121.036c-8.47-16.83-15.734-34.366-21.692-52.498l-146.774-24.46v-192.188l147.118-24.52c5.96-17.968 13.21-35.348 21.642-52.030l-86.748-121.448 135.898-135.896 121.654 86.894c16.602-8.35 33.89-15.528 51.764-21.434l24.578-147.472h192.188l24.578 147.474c17.874 5.906 35.162 13.084 51.766 21.432l121.652-86.892 135.896 135.896-86.744 121.446c8.432 16.682 15.678 34.062 21.64 52.032l147.118 24.518zM512 320c-70.692 0-128 57.306-128 128 0 70.692 57.308 128 128 128 70.694 0 128-57.308 128-128 0-70.694-57.306-128-128-128z" />
<glyph unicode="&#xe608;" glyph-name="switch" d="M640 813.412v-135.958c36.206-15.804 69.5-38.408 98.274-67.18 60.442-60.44 93.726-140.8 93.726-226.274s-33.286-165.834-93.726-226.274c-60.44-60.44-140.798-93.726-226.274-93.726s-165.834 33.286-226.274 93.726c-60.44 60.44-93.726 140.8-93.726 226.274s33.286 165.834 93.726 226.274c28.774 28.774 62.068 51.378 98.274 67.182v135.956c-185.048-55.080-320-226.472-320-429.412 0-247.424 200.578-448 448-448 247.424 0 448 200.576 448 448 0 202.94-134.95 374.332-320 429.412zM448 960h128v-512h-128z" />
<glyph unicode="&#xe609;" glyph-name="file" d="M133.597 44.688v788.339q0 19.708 13.796 33.505t33.505 13.796h394.169v-268.035q0-19.708 13.796-33.504t33.505-13.796h268.035v-520.304q0-19.708-13.796-33.505t-33.505-13.796h-662.204q-19.708 0-33.505 13.796t-13.796 33.505zM638.134 628.058v232.56q10.839-6.899 17.737-13.796l201.026-201.026q6.897-6.897 13.796-17.739h-232.56z" />
<glyph unicode="&#xe60b;" glyph-name="users" horiz-adv-x="1097" d="M0 456.571q0 201.714 70.857 201.714 3.429 0 24.857-12t55.714-24.286 68-12.286q38.286 0 76 13.143-2.857-21.143-2.857-37.714 0-79.429 46.286-146.286-92.571-2.857-151.429-73.143h-76.571q-46.857 0-78.857 23.143t-32 67.714zM73.143 804.571q0 60.571 42.857 103.429t103.429 42.857 103.429-42.857 42.857-103.429-42.857-103.429-103.429-42.857-103.429 42.857-42.857 103.429zM146.286 74.857q0 30.286 2 59.143t8 62.286 15.143 62 24.571 55.714 35.429 46.286 48.857 30.571 63.714 11.429q5.714 0 24.571-12.286t41.714-27.429 61.143-27.429 77.143-12.286 77.143 12.286 61.143 27.429 41.714 27.429 24.571 12.286q34.857 0 63.714-11.429t48.857-30.571 35.429-46.286 24.571-55.714 15.143-62 8-62.286 2-59.143q0-68.571-41.714-108.286t-110.857-39.714h-499.429q-69.143 0-110.857 39.714t-41.714 108.286zM329.143 585.143q0 90.857 64.286 155.143t155.143 64.286 155.143-64.286 64.286-155.143-64.286-155.143-155.143-64.286-155.143 64.286-64.286 155.143zM731.429 804.571q0 60.571 42.857 103.429t103.429 42.857 103.429-42.857 42.857-103.429-42.857-103.429-103.429-42.857-103.429 42.857-42.857 103.429zM758.286 438.857q46.286 66.857 46.286 146.286 0 16.571-2.857 37.714 37.714-13.143 76-13.143 33.714 0 68 12.286t55.714 24.286 24.857 12q70.857 0 70.857-201.714 0-44.571-32-67.714t-78.857-23.143h-76.571q-58.857 70.286-151.429 73.143z" />
<glyph unicode="&#xe60c;" glyph-name="star-checked" horiz-adv-x="951" d="M0 581.143q0 21.143 32 26.286l286.857 41.714 128.571 260q10.857 23.429 28 23.429t28-23.429l128.571-260 286.857-41.714q32-5.143 32-26.286 0-12.571-14.857-27.429l-207.429-202.286 49.143-285.714q0.571-4 0.571-11.429 0-12-6-20.286t-17.429-8.286q-10.857 0-22.857 6.857l-256.571 134.857-256.571-134.857q-12.571-6.857-22.857-6.857-12 0-18 8.286t-6 20.286q0 3.429 1.143 11.429l49.143 285.714-208 202.286q-14.286 15.429-14.286 27.429z" />
<glyph unicode="&#xe60d;" glyph-name="star-empty" horiz-adv-x="951" d="M0 581.143q0 21.143 32 26.286l286.857 41.714 128.571 260q10.857 23.429 28 23.429t28-23.429l128.571-260 286.857-41.714q32-5.143 32-26.286 0-12.571-14.857-27.429l-207.429-202.286 49.143-285.714q0.571-4 0.571-11.429 0-28.571-23.429-28.571-10.857 0-22.857 6.857l-256.571 134.857-256.571-134.857q-12.571-6.857-22.857-6.857-12 0-18 8.286t-6 20.286q0 3.429 1.143 11.429l49.143 285.714-208 202.286q-14.286 15.429-14.286 27.429zM126.286 546.857l174.857-169.714-41.714-240.571 216 113.714 215.429-113.714-41.143 240.571 174.857 169.714-241.143 35.429-108 218.286-108-218.286z" />
<glyph unicode="&#xe60e;" glyph-name="cloud-download" horiz-adv-x="1097" d="M0 329.143q0 74.286 40 137.143t107.429 94.286q-1.143 17.143-1.143 24.571 0 121.143 85.714 206.857t206.857 85.714q89.143 0 163.143-49.714t107.714-132q40.571 35.429 94.857 35.429 60.571 0 103.429-42.857t42.857-103.429q0-43.429-23.429-78.857 74.286-17.714 122-77.429t47.714-136.286q0-90.857-64.286-155.143t-155.143-64.286h-621.714q-105.714 0-180.857 75.143t-75.143 180.857zM292.571 420.571q0-8 5.143-13.143l201.143-201.143q5.143-5.143 13.143-5.143t13.143 5.143l200.571 200.571q5.714 6.857 5.714 13.714 0 8-5.143 13.143t-13.143 5.143h-128v201.143q0 7.429-5.429 12.857t-12.857 5.429h-109.714q-7.429 0-12.857-5.429t-5.429-12.857v-201.143h-128q-7.429 0-12.857-5.429t-5.429-12.857z" />
<glyph unicode="&#xe60f;" glyph-name="breadcrumb" d="M369.4 124.657l4.2 3.6 313 272c10.6 9.2 17.2 23 17.2 38.4s-6.8 29.2-17.2 38.4l-317.6 276.4c-5 3.4-11 5.4-17.4 5.4-17.4 0-31.6-14.8-31.6-33.2v0-573.6c0-18.4 14.2-33.2 31.6-33.2 6.6 0 12.8 2.2 17.8 5.8z" />
<glyph unicode="&#xe611;" glyph-name="dot" d="M153.6 573.44c-62.208 0-112.64-50.432-112.64-112.64s50.432-112.64 112.64-112.64 112.64 50.432 112.64 112.64c0 62.208-50.432 112.64-112.64 112.64zM512 573.44c-62.208 0-112.64-50.432-112.64-112.64s50.432-112.64 112.64-112.64 112.589 50.432 112.589 112.64c0 62.208-50.381 112.64-112.589 112.64zM870.4 573.44c-62.208 0-112.64-50.432-112.64-112.64s50.432-112.64 112.64-112.64 112.64 50.432 112.64 112.64c0 62.208-50.432 112.64-112.64 112.64z" />
<glyph unicode="&#xe612;" glyph-name="trash1" d="M173.517 554.906l56.422-497.101c3.021-23.603 116.992-101.222 282.061-101.325 165.069 0.102 279.091 77.722 282.112 101.325l56.422 497.101c-86.221-48.23-215.091-71.066-338.534-71.066s-252.314 22.835-338.483 71.066zM674.15 862.106l-43.981 48.794c-16.947 24.115-35.379 28.621-71.27 28.621h-93.798c-35.84 0-54.272-4.506-71.27-28.621l-43.93-48.794c-131.584-22.989-227.021-83.968-227.021-128.922v-8.755c0-79.155 174.182-143.36 389.12-143.36s389.12 64.205 389.12 143.36v8.755c0 44.954-95.386 105.933-226.97 128.922zM617.933 748.083l-64.102 68.557h-83.661l-64.102-68.557h-87.040c0 0 95.334 113.664 108.083 129.075 9.728 11.776 19.712 16.282 32.614 16.282h104.602c12.902 0 22.835-4.506 32.614-16.282 12.698-15.411 108.083-129.075 108.083-129.075h-87.091z" />
<glyph unicode="&#xe613;" glyph-name="grid" d="M125.201 496.351h338.452v338.452h-338.452v-338.452zM560.351 834.799v-338.452h338.452v338.452h-338.452zM560.351 61.201h338.452v338.452h-338.452v-338.452zM125.201 61.201h338.452v338.452h-338.452v-338.452z" />
<glyph unicode="&#xe614;" glyph-name="list" d="M125.201 641.401h193.401v193.401h-193.401v-193.401zM125.201 351.299h193.401v193.401h-193.401v-193.401zM125.201 61.201h193.401v193.401h-193.401v-193.401zM415.299 834.799v-193.401h483.501v193.401h-483.501zM415.299 351.299h483.501v193.401h-483.501v-193.401zM415.299 61.201h483.501v193.401h-483.501v-193.401z" />
<glyph unicode="&#xe615;" glyph-name="push-update" horiz-adv-x="1120" d="M941.632 462.88c0 0 20.768 279.776-235.552 311.68-219.68 22.432-286.56-181.728-286.56-181.728s-66.144 63.616-155.904 11.648c-80.352-49.6-66.144-140.416-66.144-140.416s-178.432-34.688-178.432-216.576c3.968-181.664 193.728-183.488 193.728-183.488h299.232v192h-96l160 160 160-160h-96v-192h270.944c0 0 176.64-0.192 201.44 172.64 11.808 188.992-170.752 226.24-170.752 226.24z" />
<glyph unicode="&#xe616;" glyph-name="search" horiz-adv-x="951" d="M0 475.428q0 81.714 31.714 156.286t85.714 128.571 128.571 85.714 156.286 31.714 156.286-31.714 128.571-85.714 85.714-128.571 31.714-156.286q0-125.714-70.857-228l196-196q21.143-21.143 21.143-51.429 0-29.714-21.714-51.429t-51.429-21.714q-30.857 0-51.429 21.714l-196 195.429q-102.286-70.857-228-70.857-81.714 0-156.286 31.714t-128.571 85.714-85.714 128.571-31.714 156.286zM146.286 475.428q0-105.714 75.143-180.857t180.857-75.143 180.857 75.143 75.143 180.857-75.143 180.857-180.857 75.143-180.857-75.143-75.143-180.857z" />
<glyph unicode="&#xe617;" glyph-name="info" d="M512 921.319c-266.467 0-482.462-215.994-482.462-482.462s215.994-482.462 482.462-482.462 482.462 215.994 482.462 482.462-215.994 482.462-482.462 482.462zM587.672 261.348c-36.408-54.667-73.445-96.79-135.757-96.79-42.531 6.94-60.010 37.409-50.807 68.473l80.163 265.502c1.966 6.495-1.299 13.435-7.237 15.55-5.9 2.078-17.48-5.604-27.5-16.589l-48.469-58.304c-1.299 9.798-0.149 25.979-0.149 32.51 36.408 54.667 96.233 97.791 136.796 97.791 38.56-3.934 56.82-34.774 50.102-68.658l-80.72-266.801c-1.076-6.012 2.115-12.136 7.571-14.066 5.938-2.078 18.408 5.604 28.465 16.589l48.431 58.267c1.299-9.798-0.891-26.944-0.891-33.475zM576.873 608.127c-30.655 0-55.52 22.342-55.52 55.224s24.865 55.186 55.52 55.186 55.52-22.342 55.52-55.186c0-32.918-24.865-55.224-55.52-55.224z" />
<glyph unicode="&#xe618;" glyph-name="pencil" d="M937.19 701.74l-9.42-9.42-171.78 171.87 9.39 9.39c0 0 41.13 54.39 99.63 54.39 25.77 0 54.96-10.59 85.47-41.1 100.62-100.62-13.29-185.13-13.29-185.13zM871.37 635.89l-584.97-585.18-254.4-82.71 82.68 254.55v0.090h0.060l584.88 585.15 7.56-7.59zM114.8 50.83l127.11 36.57-86.82 92.46-40.29-129.030z" />
<glyph unicode="&#xe619;" glyph-name="cancel" d="M831.945 250.265c-0.004 0.004-0.007 0.007-0.009 0.007l-197.725 197.729 197.725 197.728c0.004 0.004 0.007 0.006 0.009 0.007 2.129 2.13 3.667 4.618 4.654 7.266 2.703 7.239 1.161 15.71-4.661 21.534l-93.404 93.404c-5.823 5.821-14.29 7.362-21.532 4.66-2.647-0.986-5.137-2.526-7.268-4.653 0-0.004-0.004-0.006-0.007-0.007l-197.728-197.73-197.728 197.728c-0.004 0.004-0.006 0.006-0.007 0.007-2.13 2.127-4.618 3.667-7.265 4.653-7.244 2.705-15.71 1.163-21.534-4.659l-93.406-93.405c-5.823-5.822-7.362-14.291-4.661-21.533 0.988-2.649 2.527-5.138 4.654-7.266 0.004-0.002 0.006-0.006 0.007-0.007l197.728-197.728-197.728-197.73c-0.002-0.004-0.006-0.006-0.007-0.007-2.127-2.13-3.667-4.617-4.655-7.265-2.705-7.241-1.162-15.71 4.661-21.534l93.405-93.404c5.824-5.822 14.291-7.363 21.534-4.661 2.649 0.988 5.137 2.527 7.266 4.654 0.002 0.004 0.006 0.006 0.007 0.007l197.728 197.729 197.728-197.728c0.004-0.002 0.007-0.006 0.007-0.009 2.131-2.129 4.618-3.667 7.265-4.655 7.242-2.703 15.712-1.163 21.532 4.66l93.404 93.405c5.822 5.822 7.363 14.293 4.662 21.534-0.988 2.647-2.527 5.135-4.655 7.265z" />
<glyph unicode="&#xe61a;" glyph-name="check" horiz-adv-x="768" d="M640 768l-384-384-128 128-128-128 256-256 512 512-128 128z" />
<glyph unicode="&#xe61b;" glyph-name="add-file" d="M722.279 957.687h-593.534v-1019.369h425.838v85.169h-340.669v849.035h425.838v-127.753h170.335v-468.422h85.169v513.645l-172.975 167.694zM810.087 191.175h-85.169v-85.169h-85.169v-85.169h85.169v-82.527h85.169v85.169h85.169v82.527h-85.169v85.169z" />
<glyph unicode="&#xe61c;" glyph-name="pdf" d="M457.011 715.084v0 0c7.856 31.422 15.712 47.133 15.712 70.7v15.712c7.856 39.277 7.856 70.7 0 78.555 0 0 0 0 0 7.856l-7.856 7.856c0 0 0-7.856-7.856-7.856-15.712-47.133-15.712-102.122 0-172.82v0 0zM221.348 173.059c-15.712-7.856-31.422-15.712-39.277-23.568-54.989-47.133-94.266-102.122-102.122-125.686v0c47.133 7.856 94.266 54.989 141.398 149.253v0 0 0zM944.049 290.891c-7.856 7.856-39.277 31.422-149.253 31.422h-15.712c0 0 0 0 0-7.856 54.989-23.568 109.977-39.277 149.253-39.277h23.568c0 0 0 0 0 7.856v0c0 0-7.856 0-7.856 7.856v0zM975.47 228.048c-15.712-7.856-39.277-15.712-70.7-15.712-62.843 0-157.109 15.712-235.663 54.989-133.542-15.712-235.663-31.422-314.219-62.843-7.856 0-7.856 0-15.712-7.856-94.266-164.964-172.82-243.52-235.663-243.52-15.712 0-23.568 0-31.422 7.856l-39.277 23.568v7.856c-7.856 15.712-7.856 23.568-7.856 39.277 7.856 39.277 54.989 109.977 149.253 164.964 15.712 7.856 39.277 23.568 70.7 39.277 23.568 39.277 47.133 86.411 78.555 141.398 39.277 78.555 62.843 157.109 86.411 227.809v0c-31.422 94.266-47.133 149.253-15.712 259.23 7.856 31.422 31.422 62.843 62.843 62.843h15.712c15.712 0 31.422-7.856 47.133-15.712 54.989-54.989 31.422-180.674 0-282.796v-7.856c31.422-86.411 78.555-157.109 125.686-204.241 23.568-15.712 39.277-31.422 70.7-47.133 39.277 0 70.7 7.856 102.122 7.856 94.266 0 157.109-15.712 180.674-54.989 7.856-15.712 7.856-31.422 7.856-47.133-7.856-7.856-15.712-31.422-31.422-47.133v0zM464.867 534.411c-15.712-54.989-47.133-117.831-78.555-188.53-15.712-31.422-31.422-54.989-47.133-86.411h15.712c102.122 39.277 196.386 62.843 259.23 70.7-15.712 7.856-23.568 15.712-31.422 23.568-39.277 47.133-86.411 109.977-117.831 180.674v0z" />
<glyph unicode="&#xe61d;" glyph-name="earth" d="M874.040 810.038c96.702-96.704 149.96-225.28 149.96-362.040s-53.258-265.334-149.96-362.038c-96.706-96.702-225.28-149.96-362.040-149.96s-265.334 53.258-362.040 149.96c-96.702 96.704-149.96 225.278-149.96 362.038s53.254 265.336 149.96 362.040c96.706 96.704 225.28 149.962 362.040 149.962s265.334-53.258 362.040-149.962zM828.784 131.214c63.058 63.060 104.986 141.608 122.272 227.062-13.474-19.836-26.362-27.194-34.344 17.206-8.22 72.39-74.708 26.148-116.516 51.86-44.004-29.658-142.906 57.662-126.098-40.824 25.934-44.422 140.008 59.45 83.148-34.542-36.274-65.616-132.642-210.932-120.106-286.258 1.582-109.744-112.134-22.884-151.314 13.52-26.356 72.92-8.982 200.374-77.898 236.086-74.802 3.248-139.004 10.046-167.994 93.67-17.446 59.828 18.564 148.894 82.678 162.644 93.85 58.966 127.374-69.054 215.39-71.434 27.328 28.594 101.816 37.686 107.992 69.75-57.75 10.19 73.268 48.558-5.528 70.382-43.47-5.112-71.478-45.074-48.368-78.958-84.238-19.642-86.936 121.904-167.91 77.258-2.058-70.59-132.222-22.886-45.036-8.572 29.956 13.088-48.86 51.016-6.28 44.124 20.916 1.136 91.332 25.812 72.276 42.402 39.21 24.34 72.16-58.29 110.538 1.882 27.708 46.266-11.62 54.808-46.35 31.356-19.58 21.924 34.57 69.276 82.332 89.738 15.918 6.82 31.122 10.536 42.746 9.484 24.058-27.792 68.55-32.606 70.878 3.342-59.582 28.534-125.276 43.608-193.292 43.608-97.622 0-190.47-31.024-267.308-88.39 20.65-9.46 32.372-21.238 12.478-36.296-15.456-46.054-78.17-107.876-133.224-99.124-28.586-49.296-47.412-103.606-55.46-160.528 46.112-15.256 56.744-45.45 46.836-55.55-23.496-20.488-37.936-49.53-45.376-81.322 15.010-91.836 58.172-176.476 125.27-243.576 84.616-84.614 197.118-131.214 316.784-131.214 119.664 0 232.168 46.6 316.784 131.214z" />
<glyph unicode="&#xe61e;" glyph-name="phone" d="M710.502 960h-397.005c-57.498 0-104.499-47.002-104.499-104.499v-815.002c0-57.446 47.002-104.499 104.499-104.499h397.005c57.498 0 104.499 47.053 104.499 104.499v815.002c0 57.498-47.002 104.499-104.499 104.499zM512-22.221c-40.346 0-73.114 23.398-73.114 52.275s32.768 52.275 73.114 52.275c40.397 0 73.114-23.398 73.114-52.275s-32.717-52.275-73.114-52.275zM731.392 134.554h-438.835v689.613h438.835v-689.613z" />
<glyph unicode="&#xe61f;" glyph-name="computer" d="M0 874.667v-597.333h416l-74.667-128h341.333l-74.667 128h416v597.333h-1024zM938.667 362.667h-853.333v426.667h853.333v-426.667zM725.333 106.667h-426.667c-23.467 0-42.667-19.2-42.667-42.667s19.2-42.667 42.667-42.667h426.667c23.467 0 42.667 19.2 42.667 42.667s-19.2 42.667-42.667 42.667z" />
<glyph unicode="&#xe620;" glyph-name="add-user" d="M56.889 117.079c0 22.938 0.765 45.402 2.293 67.283 1.53 21.918 4.551 45.511 9.102 70.851 4.551 25.305 10.268 48.861 17.221 70.56 6.917 21.737 16.238 42.853 27.962 63.388 11.687 20.571 25.122 38.121 40.305 52.647s33.678 26.142 55.597 34.77 46.058 12.961 72.49 12.998c3.895 0 12.998-4.66 27.307-13.981s30.437-19.697 48.423-31.202c17.986-11.433 41.397-21.882 70.233-31.166s57.781-13.981 86.799-13.981c29.018 0 57.963 4.66 86.799 13.981s52.246 19.733 70.233 31.166c17.986 11.505 34.151 21.918 48.423 31.202 14.308 9.321 23.411 13.981 27.307 13.981 26.469 0 50.608-4.333 72.49-12.998s40.414-20.279 55.559-34.77c15.219-14.491 28.618-32.076 40.305-52.647s21.044-41.725 27.962-63.388c6.954-21.663 8.411-45.002 8.411-45.002-40.778 50.062-89.347 84.468-167.809 85.343-67.939 0.765-147.165-34.88-194.169-101.653-44.929-63.861-45.803-145.199-25.814-204.035 23.338-68.667 88.692-111.411 83.012-111.52l-416.809-0.219c-52.465 0-94.481 15.037-126.121 45.183-31.603 30.11-47.477 71.18-47.514 123.207v0zM264.929 697.655c0 68.922 24.394 127.759 73.146 176.51s107.588 73.146 176.51 73.146c68.922 0 127.759-24.357 176.51-73.146s73.146-107.625 73.146-176.51-24.394-127.759-73.146-176.51c-48.752-48.752-107.588-73.146-176.51-73.146s-127.723 24.394-176.51 73.146c-48.752 48.752-73.146 107.588-73.146 176.51zM907.437 268.686c-63.060 63.024-157.614 70.925-228.466 23.666-11.796-7.937-19.661-15.765-27.562-23.666-59.091-62.951-70.925-157.541-27.598-228.393 7.901-11.833 15.765-23.63 27.598-35.462 70.851-74.893 185.139-74.893 259.959 0 66.992 70.925 66.992 189.108-3.895 263.965v-0.109zM860.178 107.249v0h-35.499c-7.901 0-15.729-7.937-15.729-19.697v0-31.493c0-7.901-3.969-15.765-7.901-19.697-4.005-3.895-11.869-7.901-19.697-7.901-15.802 0-27.598 11.833-27.598 27.598v0 39.394c0 11.833-7.901 19.661-19.661 19.661v0h-31.53c-7.901 0-15.729 3.895-19.697 7.937-3.895 3.932-7.901 11.833-7.901 19.661 0 15.802 11.869 27.598 23.63 27.598v0h35.499c7.828 0 15.729 7.937 15.729 19.661v35.462c0 7.937 3.932 11.796 7.901 19.697 3.969 3.895 11.796 7.901 19.697 7.901 15.765 0 27.562-11.869 27.562-27.598v0-43.291c0-11.833 7.937-19.733 15.765-19.733v0h35.499c7.865 0 11.796-3.859 15.729-7.865 3.969-3.932 7.901-11.833 7.901-19.697 1.566-12.342-3.932-23.702-19.697-27.598v0z" />
<glyph unicode="&#xe621;" glyph-name="tablet" horiz-adv-x="658" d="M0 173.714v621.714q0 37.714 26.857 64.571t64.571 26.857h475.429q37.714 0 64.571-26.857t26.857-64.571v-621.714q0-37.714-26.857-64.571t-64.571-26.857h-475.429q-37.714 0-64.571 26.857t-26.857 64.571zM73.143 246.857q0-7.429 5.429-12.857t12.857-5.429h475.429q7.429 0 12.857 5.429t5.429 12.857v548.571q0 7.429-5.429 12.857t-12.857 5.429h-475.429q-7.429 0-12.857-5.429t-5.429-12.857v-548.571zM292.571 155.429q0-14.857 10.857-25.714t25.714-10.857 25.714 10.857 10.857 25.714-10.857 25.714-25.714 10.857-25.714-10.857-10.857-25.714z" />
<glyph unicode="&#xe622;" glyph-name="laptop" horiz-adv-x="1097" d="M0 137.143v54.857h1097.143v-54.857q0-22.857-26.857-38.857t-64.571-16h-914.286q-37.714 0-64.571 16t-26.857 38.857zM146.286 320v402.286q0 37.714 26.857 64.571t64.571 26.857h621.714q37.714 0 64.571-26.857t26.857-64.571v-402.286q0-37.714-26.857-64.571t-64.571-26.857h-621.714q-37.714 0-64.571 26.857t-26.857 64.571zM219.429 320q0-7.429 5.429-12.857t12.857-5.429h621.714q7.429 0 12.857 5.429t5.429 12.857v402.286q0 7.429-5.429 12.857t-12.857 5.429h-621.714q-7.429 0-12.857-5.429t-5.429-12.857v-402.286zM493.714 146.286q0-9.143 9.143-9.143h91.429q9.143 0 9.143 9.143t-9.143 9.143h-91.429q-9.143 0-9.143-9.143z" />
<glyph unicode="&#xe623;" glyph-name="home" horiz-adv-x="951" d="M14.857 446q0.571 7.714 6.286 12.286l410.857 342.286q18.286 14.857 43.429 14.857t43.429-14.857l139.429-116.571v111.429q0 8 5.143 13.143t13.143 5.143h109.714q8 0 13.143-5.143t5.143-13.143v-233.143l125.143-104q5.714-4.571 6.286-12.286t-4-13.429l-35.429-42.286q-4.571-5.143-12-6.286h-1.714q-7.429 0-12 4l-395.429 329.714-395.429-329.714q-6.857-4.571-13.714-4-7.429 1.143-12 6.286l-35.429 42.286q-4.571 5.714-4 13.429zM146.286 118.857v274.286q0 0.571 0.286 1.714t0.286 1.714l328.571 270.857 328.571-270.857q0.571-1.143 0.571-3.429v-274.286q0-14.857-10.857-25.714t-25.714-10.857h-219.429v219.429h-146.286v-219.429h-219.429q-14.857 0-25.714 10.857t-10.857 25.714z" />
<glyph unicode="&#xe624;" glyph-name="word" d="M66.4 788.8c-28.8-12.8-50.4-48.8-50.4-82.4 0-12 7.2-48 16-78.4 8.8-31.2 32.8-120 52.8-199.2 39.2-156.8 60-204.8 104.8-248.8 91.2-88.8 159.2-92.8 450.4-24.8 108 24.8 204 48.8 214.4 52.8 14.4 6.4 18.4 13.6 16 30.4-2.4 19.2-6.4 22.4-46.4 29.6-83.2 15.2-90.4 28-120.8 208-24.8 147.2-40.8 194.4-74.4 216-23.2 15.2-75.2 17.6-100 4.8-35.2-19.2-35.2-40.8-4.8-196 32.8-164.8 46.4-211.2 69.6-240.8 8.8-11.2 14.4-22.4 12-24.8-1.6-2.4-39.2-5.6-82.4-8.8-77.6-4.8-80-4-105.6 17.6-29.6 24.8-33.6 37.6-82.4 252-18.4 81.6-36 161.6-40.8 178.4-8.8 37.6-47.2 81.6-88.8 102.4-41.6 21.6-106.4 27.2-139.2 12zM849.6 630.4c-17.6-17.6-11.2-82.4 32-317.6 13.6-75.2 64.8-103.2 108-60 18.4 18.4 20 24.8 16 65.6-4 46.4-22.4 162.4-38.4 240.8-11.2 55.2-35.2 80.8-77.6 80.8-16.8 0-34.4-4-40-9.6z" />
<glyph unicode="&#xe625;" glyph-name="power-point" d="M50.4 920.8c-56-34.4-46.4-126.4 16.8-156 37.6-17.6 71.2-23.2 351.2-60 291.2-38.4 316-43.2 356.8-72.8 36.8-27.2 52-63.2 52-128.8 1.6-83.2-24.8-105.6-147.2-122.4-52.8-7.2-86.4-16-96.8-25.6-22.4-20-20-63.2 5.6-88.8 19.2-19.2 24-20 81.6-16 34.4 2.4 90.4 10.4 125.6 17.6 165.6 33.6 219.2 100 210.4 262.4-8.8 160-73.6 228-266.4 277.6-99.2 25.6-609.6 128-637.6 128-14.4 0-37.6-7.2-52-15.2zM154.4 648.8c-70.4-32-77.6-72-39.2-216.8 16-59.2 41.6-161.6 56.8-228 35.2-151.2 51.2-182.4 106.4-213.6 132-75.2 281.6 26.4 250.4 169.6-5.6 24-22.4 105.6-37.6 180-35.2 175.2-46.4 207.2-86.4 250.4-64 69.6-170.4 94.4-250.4 58.4z" />
<glyph unicode="&#xe626;" glyph-name="text" d="M76.8 874.4c2.4-48 7.2-111.2 10.4-142.4 4.8-53.6 5.6-56 27.2-58.4 24.8-3.2 20-11.2 72.8 128.8l30.4 77.6h182.4v-862.4l-25.6-5.6c-14.4-3.2-47.2-11.2-72-17.6-43.2-11.2-46.4-14.4-46.4-35.2v-23.2h512v22.4c0 20-4 24-41.6 36-23.2 6.4-56 15.2-72 18.4l-30.4 4.8v862.4h182.4l24-61.6c12.8-34.4 30.4-81.6 38.4-104 13.6-39.2 16.8-42.4 40-42.4h25.6l4.8 86.4c3.2 47.2 7.2 112 9.6 144l4.8 57.6h-881.6l4.8-85.6z" />
<glyph unicode="&#xe627;" glyph-name="revoke" d="M448 944c-15.2-15.2-16-26.4-16-213.6 0-191.2-4-226.4-23.2-215.2-5.6 4-8.8 55.2-8.8 159.2 0 165.6-4 185.6-41.6 203.2-25.6 12.8-64 0.8-77.6-24-5.6-12-9.6-96.8-11.2-261.6l-1.6-244-42.4 58.4c-58.4 80-101.6 94.4-147.2 49.6-40-40-32-60.8 92-248.8 60-90.4 121.6-176 137.6-189.6 69.6-61.6 151.2-84.8 280.8-80 66.4 2.4 96 7.2 124.8 20 55.2 24.8 104.8 75.2 131.2 132.8l23.2 49.6 2.4 303.2c3.2 328 1.6 340-39.2 356.8-24.8 10.4-64.8 0.8-77.6-19.2-3.2-4.8-7.2-75.2-9.6-156.8-3.2-124.8-5.6-148-16-148s-12.8 29.6-16 205.6c-3.2 180.8-5.6 208-17.6 222.4-21.6 24-64.8 24-90.4-0.8-15.2-14.4-16-28-18.4-203.2-1.6-150.4-4.8-188-12.8-188-6.4 0-13.6 5.6-16 12.8s-4.8 100.8-4.8 208c0 184.8-0.8 196-16 211.2-9.6 9.6-26.4 16-44 16s-34.4-6.4-44-16z" />
<glyph unicode="&#xe628;" glyph-name="chart" d="M128 64h896v-128h-1024v1024h128zM288 128c-53.020 0-96 42.98-96 96s42.98 96 96 96c2.828 0 5.622-0.148 8.388-0.386l103.192 171.986c-9.84 15.070-15.58 33.062-15.58 52.402 0 53.020 42.98 96 96 96s96-42.98 96-96c0-19.342-5.74-37.332-15.58-52.402l103.192-171.986c2.766 0.238 5.56 0.386 8.388 0.386 2.136 0 4.248-0.094 6.35-0.23l170.356 298.122c-10.536 15.408-16.706 34.036-16.706 54.11 0 53.020 42.98 96 96 96s96-42.98 96-96c0-53.020-42.98-96-96-96-2.14 0-4.248 0.094-6.35 0.232l-170.356-298.124c10.536-15.406 16.706-34.036 16.706-54.11 0-53.020-42.98-96-96-96s-96 42.98-96 96c0 19.34 5.74 37.332 15.578 52.402l-103.19 171.984c-2.766-0.238-5.56-0.386-8.388-0.386s-5.622 0.146-8.388 0.386l-103.192-171.986c9.84-15.068 15.58-33.060 15.58-52.4 0-53.020-42.98-96-96-96z" />
<glyph unicode="&#xe629;" glyph-name="add-folder" horiz-adv-x="1073" d="M1039.246 226.095v381.563c0 25.436-20.090 46.057-45.827 46.057h-914.061c-25.31 0-45.827-20.522-45.827-46.057v-593.602c0-25.436 20.090-46.057 45.827-46.057h701.793c-37.962 33.506-61.905 82.528-61.905 137.143 0 100.989 81.868 182.858 182.858 182.858 54.614 0 103.637-23.943 137.143-61.905v0zM993.531 699.428v91.477c0 25.221-20.457 45.667-45.646 45.667h-548.64v45.714c0 25.247-20.017 45.714-45.849 45.714h-228.304c-25.321 0-45.847-20.284-45.847-45.706v-182.866h914.286zM856.388 242.285h91.429v-91.429h91.429v-91.429h-91.429v-91.429h-91.429v91.429h-91.429v91.429h91.429v91.429z" />
<glyph unicode="&#xe62a;" glyph-name="add-file2" d="M152 868h480v-300h240v-600h-720v900zM692.938 867.278l182.593-240.978h-182.593v240.978zM452 568v-120h-120v-120h120v-120h120v120h120v120h-120v120h-120z" />
<glyph unicode="&#xe62b;" glyph-name="zoom-out" d="M33.835 35.499l60.331-60.331 187.093 187.093-58.752 61.909-188.672-188.672zM602.667 896c-209.109 0-378.667-169.557-378.667-378.667 0-81.877 26.325-157.44 70.485-219.435l71.253-75.093c64.896-52.352 147.029-84.181 236.928-84.181 209.109 0 378.667 169.557 378.667 378.667s-169.557 378.709-378.667 378.709zM602.667 224c-161.749 0-293.333 131.584-293.333 293.333s131.584 293.333 293.333 293.333 293.333-131.584 293.333-293.333-131.584-293.333-293.333-293.333zM469.248 554.582h256v-85.333h-256z" />
<glyph unicode="&#xe62c;" glyph-name="zoom-in" d="M33.835 35.499l60.331-60.331 187.093 187.093-58.752 61.909-188.672-188.672zM602.667 896c-209.109 0-378.667-169.557-378.667-378.667 0-81.877 26.325-157.44 70.485-219.435l71.253-75.093c64.896-52.352 147.029-84.181 236.928-84.181 209.109 0 378.667 169.557 378.667 378.667s-169.557 378.709-378.667 378.709zM602.667 224c-161.749 0-293.333 131.584-293.333 293.333s131.584 293.333 293.333 293.333 293.333-131.584 293.333-293.333-131.584-293.333-293.333-293.333zM640.939 640h-85.333v-85.333h-85.333v-85.333h85.333v-85.333h85.333v85.333h85.333v85.333h-85.333v85.333z" />
<glyph unicode="&#xe62d;" glyph-name="refesh" horiz-adv-x="896" d="M764.256 765.248l-90.24-90.624c60.48-60.512 93.984-140.992 93.984-226.624 0-176.512-143.488-320-320-320v64l-128-128 128-128v64c247.008 0 448 200.992 448 448 0 119.872-46.752 232.512-131.744 317.248zM576 832l-128 128v-64c-247.008 0-448-200.992-448-448 0-119.872 46.752-232.512 131.744-317.248l90.24 90.624c-60.48 60.512-93.984 140.992-93.984 226.624 0 176.512 143.488 320 320 320v-64l128 128z" />
<glyph unicode="&#xe62e;" glyph-name="reshare" horiz-adv-x="800" d="M544 723.657c0 6.4 0 12.8 0 19.2s0 12.8 3.2 19.2 3.2 12.8 6.4 19.2 3.2 12.8 6.4 19.2c3.2 6.4 6.4 9.6 12.8 16 3.2 3.2 6.4 6.4 12.8 6.4 6.4 3.2 12.8 3.2 19.2 3.2 0 0 3.2 0 6.4-3.2s9.6-6.4 12.8-9.6 12.8-6.4 19.2-9.6 16-3.2 25.6-3.2c9.6 0 16 0 25.6 3.2s16 6.4 19.2 9.6c6.4 3.2 9.6 6.4 12.8 9.6s6.4 3.2 6.4 3.2c6.4 0 12.8 0 19.2-3.2s12.8-6.4 16-9.6c3.2-3.2 9.6-9.6 12.8-16s6.4-12.8 6.4-19.2c3.2-6.4 3.2-12.8 6.4-19.2 0-6.4 3.2-12.8 3.2-19.2s0-12.8 0-19.2c0-16-3.2-25.6-12.8-35.2s-19.2-12.8-35.2-12.8h-160c-16 0-25.6 3.2-35.2 12.8-6.4 12.8-9.6 22.4-9.6 38.4v0zM601.6 886.857c0 19.2 6.4 35.2 19.2 48 16 12.8 32 22.4 51.2 22.4s35.2-6.4 48-19.2c12.8-12.8 19.2-28.8 19.2-48s-6.4-35.2-19.2-48-28.8-25.6-48-25.6c-19.2 0-35.2 6.4-48 19.2-16 12.8-22.4 32-22.4 51.2zM0 61.257c0 19.2 0 35.2 3.2 54.4 0 16 3.2 35.2 6.4 57.6s9.6 38.4 12.8 57.6c6.4 16 12.8 35.2 22.4 51.2s19.2 28.8 32 41.6c12.8 12.8 25.6 22.4 44.8 28.8 16 6.4 35.2 9.6 57.6 9.6 3.2 0 9.6-3.2 22.4-9.6s25.6-16 38.4-25.6c12.8-9.6 32-16 57.6-25.6 22.4-6.4 44.8-9.6 70.4-9.6 22.4 0 44.8 3.2 70.4 9.6 22.4 6.4 41.6 16 57.6 25.6 12.8 9.6 28.8 16 38.4 25.6 12.8 6.4 19.2 9.6 22.4 9.6 22.4 0 41.6-3.2 57.6-9.6s32-16 44.8-28.8c12.8-12.8 22.4-25.6 32-41.6s16-32 22.4-51.2c6.4-16 9.6-35.2 12.8-57.6 3.2-19.2 6.4-38.4 6.4-57.6 0-16 3.2-35.2 3.2-54.4 0-41.6-12.8-73.6-38.4-99.2-32-22.4-64-35.2-105.6-35.2h-454.4c-41.6 0-76.8 12.8-99.2 35.2-25.6 25.6-38.4 57.6-38.4 99.2v0zM166.4 525.257c0 54.4 19.2 102.4 57.6 140.8s86.4 57.6 140.8 57.6 102.4-19.2 140.8-57.6 57.6-86.4 57.6-140.8c0-54.4-19.2-102.4-57.6-140.8s-86.4-57.6-140.8-57.6-102.4 19.2-140.8 57.6c-38.4 38.4-57.6 86.4-57.6 140.8zM387.2 944.457l67.2-70.4c3.2-3.2 6.4-9.6 6.4-16s-3.2-9.6-6.4-16l-67.2-70.4c-6.4-9.6-22.4-9.6-28.8 0s-6.4 22.4 0 28.8l32 35.2h-144c-12.8 0-19.2 9.6-19.2 22.4s9.6 22.4 19.2 22.4h144l-32 35.2c-6.4 9.6-6.4 22.4 0 28.8 6.4 9.6 19.2 9.6 28.8 0z" />
<glyph unicode="&#xe62f;" glyph-name="screen-normal" horiz-adv-x="896" d="M127.938 768.062h-127.938v-64h191.938v191.938h-64v-127.938zM0 127.938h127.938v-127.938h64v191.938h-191.938v-64zM768.062 768.062v127.938h-64v-191.938h191.938v64h-127.938zM704.062 0h64v127.938h127.938v64h-191.938v-191.938zM192.062 256h511.938v384h-511.938v-384zM320 512h256v-128h-256v128z" />
<glyph unicode="&#xe630;" glyph-name="screen-full" horiz-adv-x="895" d="M128 192h639.875v512h-639.875v-512zM255.938 576h384v-256h-384v256zM64 767.938h191.938v64h-255.938v-255.938h64v191.938zM64 320h-64v-255.938h255.938v63.938h-191.938v192zM639.938 831.938v-64h191.938v-191.938h64v255.938h-255.938zM831.875 128h-191.937v-63.938h255.938v255.938h-64v-192z" />
<glyph unicode="&#xe631;" glyph-name="dark-mode" d="M546.133 773.547c20.1 0 36.409 16.309 36.409 36.409v72.818c0 20.1-16.309 36.409-36.409 36.409s-36.409-16.309-36.409-36.409v-72.818c0-20.1 16.309-36.409 36.409-36.409zM546.133 118.187c-20.1 0-36.409-16.309-36.409-36.409v-72.818c0-20.1 16.309-36.409 36.409-36.409s36.409 16.309 36.409 36.409v72.818c0 20.1-16.309 36.409-36.409 36.409zM262.967 214.138l-51.485-51.485c-14.222-14.22-14.222-37.26 0-51.483s37.262-14.222 51.485 0l51.485 51.483c14.222 14.27 14.222 37.264 0 51.485-14.22 14.224-37.262 14.272-51.485 0zM218.453 445.867c0 20.1-16.309 36.409-36.409 36.409h-72.818c-20.1 0-36.409-16.309-36.409-36.409s16.309-36.409 36.409-36.409h72.818c20.1 0 36.409 16.309 36.409 36.409zM262.919 677.594c14.224-14.222 37.264-14.222 51.485 0 14.224 14.222 14.224 37.262 0 51.485l-51.485 51.485c-14.222 14.222-37.26 14.222-51.485 0-14.222-14.222-14.222-37.262 0-51.485l51.485-51.485zM691.769 700.729c-25.459 0-49.634-4.931-72.818-11.851-23.183 6.923-47.359 11.851-72.818 11.851-140.515 0-254.862-114.347-254.862-254.862s114.347-254.862 254.862-254.862c25.459 0 49.634 4.929 72.818 11.854 23.183-6.925 47.359-11.854 72.818-11.854 140.515 0 254.862 114.347 254.862 254.862s-114.347 254.862-254.862 254.862zM510.245 267.424c-83.39 16.687-146.157 90.171-146.157 178.443s62.767 161.754 146.157 178.443c-45.273-46.032-73.339-108.942-73.339-178.443s28.067-132.41 73.339-178.443z" />
<glyph unicode="&#xe632;" glyph-name="page-break" d="M139.173-49.103h62.138v310.689h621.378v-310.689h62.138v372.827h-745.654v-372.827zM201.311 479.069h-124.276v-62.138h124.276v62.138zM387.724 416.931v62.138h-124.276v-62.138h124.276zM574.138 416.931v62.138h-124.276v-62.138h124.276zM760.551 416.931v62.138h-124.276v-62.138h124.276zM822.689 479.069v-62.138h124.276v62.138h-124.276zM884.827 945.103h-62.138v-310.689h-621.378v310.689h-62.138v-372.827h745.654v372.827z" />
<glyph unicode="&#xe633;" glyph-name="book" d="M745 768c-167 0-209-32-233-56-24 24-66 56-233 56s-247-46-247-78v-586c29 16 119 48 214 56 115 9 234-9 234-32 0-16 8-31 31-32 0 0 0 0 1 0 0 0 0 0 1 0 23 1 31 16 31 32 0 23 119 41 234 32 94-7 185-40 214-56v586c0 32-80 78-247 78zM480 196c-30 16-103 28-192 28s-170-12-192-27c0 0 0 411 0 443s64 59 192 59 192-27 192-59 0-444 0-444zM928 197c-22 15-103 27-192 27s-162-12-192-28c0 0 0 412 0 444s64 59 192 59 192-27 192-59 0-443 0-443z" />
<glyph unicode="&#xe634;" glyph-name="files" d="M236.574 155.37v720.099c0 12.038 4.194 22.214 12.622 30.641s18.603 12.582 30.603 12.582h360.089v-244.862c0-12 4.155-22.214 12.582-30.603s18.603-12.622 30.564-12.622h244.901v-475.277c0-12.078-4.194-22.137-12.582-30.641-8.428-8.35-18.603-12.506-30.603-12.506h-604.95c-12 0-22.214 4.155-30.603 12.506-8.35 8.544-12.622 18.603-12.622 30.681v0zM697.482 688.279v212.433c6.679-4.194 12.078-8.389 16.234-12.582l183.657-183.657c4.234-4.194 8.428-9.631 12.582-16.195h-212.473zM180.689 64.959h567.901v-44.468c0-12.078-4.194-22.214-12.582-30.641-8.428-8.428-18.603-12.582-30.603-12.582h-566.154c-12 0-22.214 4.155-30.603 12.582-8.428 8.428-12.622 18.603-12.622 30.641v-0.078 720.178c0 12.078 4.234 22.214 12.622 30.641 8.428 8.428 18.641 12.582 30.603 12.582h40.622l0.816-718.858z" />
<glyph unicode="&#xe635;" glyph-name="folder-f" d="M951.296 738.884c-1.297 32.017-11.639 39.492-38.98 39.492 0 0-313.378 0-369.596 0-56.252 0-62.976-0.785-105.574 44.919-35.362 38.195-21.436 37.683-94.447 37.683-58.334 0-194.355 0-194.355 0-44.919 0-60.928 3.857-65.024-42.837-3.857-43.11-12.902-147.627-14.199-163.635h886.306l-4.13 84.378zM961.365 613.171h-898.697c-45.67 0-47.991-23.757-45.431-52.907l33.553-472.337c2.321-28.911 9.045-52.941 54.443-52.941h816.128c46.421 0 51.917 23.791 54.443 52.941l31.232 478.276c2.287 28.911 0 46.967-45.67 46.967zM426.086 122.675c-23.689 118.477-47.411 239.343-68.71 360.175 85.299-2.389 174.148 11.844 260.676 42.667 15.394-78.199 32.017-155.238 47.343-232.243-35.533-14.199-71.066-26.078-106.598-36.727 7.134-35.533 14.199-69.871 21.333-105.472-50.927-14.199-103.049-24.883-154.044-28.399zM597.879 159.403c-5.871 28.399-11.878 56.866-17.749 84.139 29.594 8.26 58.061 18.944 86.46 30.788-22.528-39.117-46.182-77.005-68.71-114.927zM577.741 441.412c-26.078-9.523-50.893-16.589-77.005-20.207-22.494-3.55-28.399-11.878-23.654-36.727 2.355-14.199 5.905-27.204 8.26-41.472 34.372 4.813 68.745 13.073 101.922 26.078 3.55 1.195 8.26 0 9.455-4.745 2.389-8.26 3.55-17.783 5.871-26.078 1.195-3.55-2.321-8.26-5.871-10.684-33.212-14.199-67.55-23.654-101.888-28.399 8.294-39.117 15.394-77.005 23.689-114.927 1.161-3.55-2.355-8.26-5.939-9.455-11.878-2.389-24.883-4.745-36.727-5.939-4.745 0-8.294 2.321-9.455 7.134-13.039 67.55-26.078 134.997-39.083 203.742-13.039 67.55 22.494 78.234 71.066 85.333 45.022 8.294 60.45 10.684 72.294 13.039 5.871 1.161 8.26 0 9.455-4.745 1.126-8.294 3.55-15.394 4.745-23.689 0-2.389-3.618-7.134-7.134-8.26z" />
<glyph unicode="&#xe636;" glyph-name="chart2" d="M45.461 914.034h-38.332v-932.067h1009.74v37.398l-970.749 1.942-0.66 892.726zM550.836 875.198c0 21.476-17.398 38.836-38.836 38.836h-116.509c-21.476 0-38.836-17.36-38.836-38.836v-776.723h194.181v776.723zM317.819 642.181c0 21.438-17.398 38.836-38.836 38.836h-116.509c-21.476 0-38.836-17.398-38.836-38.836v-543.707h194.181v543.707zM783.853 409.164c0 21.476-17.398 38.836-38.836 38.836h-116.509c-21.476 0-38.836-17.36-38.836-38.836v-310.689h194.181v310.689zM978.034 214.983h-116.509c-21.476 0-38.836-17.36-38.836-38.836v-77.673h194.181v77.673c0 21.476-17.398 38.836-38.836 38.836z" />
<glyph unicode="&#xe637;" glyph-name="filter" horiz-adv-x="805" d="M801.714 791.429q9.714-23.429-8-40l-281.714-281.714v-424q0-24-22.286-33.714-7.429-2.857-14.286-2.857-15.429 0-25.714 10.857l-146.286 146.286q-10.857 10.857-10.857 25.714v277.714l-281.714 281.714q-17.714 16.571-8 40 9.714 22.286 33.714 22.286h731.429q24 0 33.714-22.286z" />
<glyph unicode="&#xe638;" glyph-name="envelope" d="M928 832h-832c-53.024 0-96-42.976-96-96v-576c0-52.992 42.976-96 96-96h832c53.024 0 96 43.008 96 96v576c0 53.024-42.976 96-96 96zM87.712 128.32l-23.392 23.424 263.968 263.936 23.392-23.424-263.968-263.936zM936.288 128.32l-263.968 263.936 23.392 23.424 263.968-263.936-23.392-23.424zM544 341.6v-21.6h-64v21.6l-415.904 385.6 40.704 40.704 407.2-377.536 407.2 377.536 40.704-40.704-415.904-385.6z" />
<glyph unicode="&#xe639;" glyph-name="restore" d="M637.155 448c0 50.29-40.733 91.022-91.022 91.022s-91.022-40.733-91.022-91.022 40.733-91.022 91.022-91.022 91.022 40.733 91.022 91.022zM546.133 857.6c-226.19 0-409.6-183.41-409.6-409.6h-136.533l182.045-182.045 182.045 182.045h-136.533c0 175.901 142.677 318.578 318.578 318.578s318.578-142.677 318.578-318.578-142.677-318.578-318.578-318.578c-68.949 0-132.437 22.073-184.775 59.392l-64.398-65.309c69.177-53.248 155.421-85.106 249.173-85.106 226.19 0 409.6 183.41 409.6 409.6s-183.41 409.6-409.6 409.6z" />
<glyph unicode="&#xe63a;" glyph-name="trash" d="M584.848-48.779c-16.317 16.321-27.198 32.633-38.071 48.946-59.825 97.895-43.506 228.409 38.071 315.421 10.876 10.878 21.755 21.753 38.071 32.628 97.893 65.265 228.405 54.389 315.419-32.628h-0.002c1.446-1.526 2.798-3.107 4.203-4.66v280.586h-304.963c-14.948 0-27.654 5.233-38.121 15.698s-15.698 23.172-15.698 38.121v304.963h-448.477c-14.948 0-27.654-5.233-38.121-15.698s-15.698-23.172-15.698-38.121v-896.954c0-14.948 5.233-27.654 15.698-38.121 10.465-10.462 23.172-15.695 38.121-15.695h454.963c-1.814 1.808-3.617 3.638-5.394 5.514zM904.417 683.449l-228.723 228.723c-5.233 5.233-11.958 10.465-20.18 15.698v-264.604h264.602c-5.235 8.226-10.467 14.951-15.698 20.183zM889.082 264.4v0c-62.756 62.761-156.892 70.605-227.499 23.533-11.765-7.844-19.612-15.686-27.458-23.533-58.836-62.758-70.605-156.892-27.458-227.499 7.844-11.769 15.686-23.533 27.458-35.305 70.605-74.524 184.351-74.524 258.878 0 66.685 70.607 66.685 188.281-3.922 262.802zM879.99 98.214h-230.341v59.814h230.341v-59.814z" />
<glyph unicode="&#xe63b;" glyph-name="help" d="M505.754 918.989c-260.147-3.482-468.224-217.19-464.742-477.338 3.482-259.994 217.19-468.122 477.338-464.64 260.045 3.482 468.173 217.19 464.64 477.338-3.43 260.045-217.139 468.122-477.235 464.64zM504.371 161.28h-2.611c-40.038 1.178-68.301 30.72-67.174 70.195 1.126 38.758 30.054 66.97 68.813 66.97l2.355-0.051c41.165-1.229 69.12-30.464 67.891-71.066-1.126-38.861-29.645-66.048-69.274-66.048zM672.87 495.718c-9.472-13.363-30.157-30.003-56.269-50.33l-28.774-19.866c-15.77-12.288-25.293-23.808-28.826-35.123-2.867-9.011-4.198-11.315-4.454-29.491l-0.051-4.659h-109.722l0.307 9.318c1.331 38.195 2.304 60.621 18.125 79.206 24.832 29.133 79.616 64.41 81.92 65.894 7.834 5.939 14.438 12.646 19.405 19.814 11.52 15.872 16.589 28.416 16.589 40.653 0 17.050-5.069 32.819-15.053 46.848-9.626 13.568-27.904 20.429-54.323 20.429-26.214 0-44.134-8.346-54.886-25.395-11.11-17.562-16.64-35.942-16.64-54.784v-4.71h-113.152l0.205 4.915c2.918 69.325 27.648 119.194 73.523 148.326 28.774 18.586 64.614 27.955 106.394 27.955 54.733 0 101.018-13.312 137.37-39.526 36.864-26.573 55.552-66.406 55.552-118.323 0-29.082-9.165-56.371-27.238-81.152z" />
<glyph unicode="&#xe63c;" glyph-name="printer" d="M272 836h480v-120h-480v120zM932 656h-840c-33 0-60-27-60-60v-300c0-33 26.994-60 60-60h180v-240h480v240h180c33 0 60 27 60 60v300c0 33-27 60-60 60zM152 476c-33.137 0-60 26.863-60 60s26.863 60 60 60 60-26.863 60-60-26.861-60-60-60zM692 56h-360v300h360v-300z" />
<glyph unicode="&#xe63e;" glyph-name="keyboard-arrow-right" d="M366.293 257.707l195.627 195.627-195.627 195.627 60.373 60.373 256-256-256-256z" />
<glyph unicode="&#xe63f;" glyph-name="keyboard-arrow-left" d="M657.707 263.040l-195.627 195.627 195.627 195.627-60.373 60.373-256-256 256-256z" />
<glyph unicode="&#xe640;" glyph-name="direction" d="M575.584 864h-160v-96h160v96zM575.584 480v64h-160v-64h160zM415.584 0h160v256h-160v-256zM799.584 576l-69.984 80 69.984 80h-512l-83.2-80 83.2-80h512zM735.584 448h-512l70.016-80-70.016-80h512l84 80-84 80z" />
<glyph unicode="&#xe641;" glyph-name="notice" d="M496 848c-229.76 0-416-186.24-416-416s186.24-416 416-416 416 186.24 416 416-186.24 416-416 416zM496 196c-26.528 0-48 21.504-48 48s21.472 48 48 48c26.496 0 48-21.504 48-48s-21.504-48-48-48zM544 404c0-26.496-21.504-48-48-48-26.528 0-48 21.504-48 48v224c0 26.528 21.472 48 48 48 26.496 0 48-21.472 48-48v-224z" />
<glyph unicode="&#xe642;" glyph-name="locked" d="M928-64h-832c-17.664 0-32 14.304-32 32v512c0 17.696 14.336 32 32 32h96v128c0 176.736 143.264 320 320 320s320-143.264 320-320v-128h96c17.696 0 32-14.304 32-32v-512c0-17.696-14.304-32-32-32zM704 656c0 97.216-85.984 176-192 176s-192-78.784-192-176v-144h384v144z" />
<glyph unicode="&#xe643;" glyph-name="delete-user" horiz-adv-x="1170" d="M402.286 448q-90.857 0-155.143 64.286t-64.286 155.143 64.286 155.143 155.143 64.286 155.143-64.286 64.286-155.143-64.286-155.143-155.143-64.286zM1017.714 265.143l142.286-142.286q5.143-5.143 5.143-13.143 0-7.429-5.143-12.571l-77.714-77.714q-5.143-5.143-12.571-5.143-8 0-13.143 5.143l-142.286 142.286-142.286-142.286q-5.143-5.143-13.143-5.143-7.429 0-12.571 5.143l-77.714 77.714q-5.143 5.143-5.143 12.571 0 8 5.143 13.143l142.286 142.286-142.286 142.286q-5.143 5.143-5.143 13.143 0 7.429 5.143 12.571l77.714 77.714q5.143 5.143 12.571 5.143 8 0 13.143-5.143l142.286-142.286 142.286 142.286q5.143 5.143 13.143 5.143 7.429 0 12.571-5.143l77.714-77.714q5.143-5.143 5.143-12.571 0-8-5.143-13.143zM733.143 265.143l-103.429-103.429q-21.143-21.143-21.143-52 0-30.286 21.143-51.429l47.429-47.429q-12-1.714-25.143-1.714h-499.429q-69.143 0-110.857 39.429t-41.714 108.571q0 30.286 2 59.143t8 62.286 15.143 62 24.571 55.714 35.429 46.286 48.857 30.571 63.714 11.429q10.857 0 22.286-9.714 88-69.714 182.286-69.714t182.286 69.714q11.429 9.714 22.286 9.714 16 0 32.571-3.429-16-15.429-23.429-28.571t-7.429-32q0-30.857 21.143-52z" />
<glyph unicode="&#xe900;" glyph-name="view" horiz-adv-x="1317" d="M658.286 960c-299.221 0-554.755-186.115-658.286-448.831 103.53-262.716 359.065-448.831 658.286-448.831s554.755 186.115 658.286 448.831c-103.53 262.716-359.065 448.831-658.286 448.831v0zM658.286 211.948c-165.17 0-299.221 134.051-299.221 299.221 0 165.2 134.051 299.221 299.221 299.221s299.221-134.021 299.221-299.221c0-165.17-134.051-299.221-299.221-299.221v0zM658.286 690.701c-99.341 0-179.532-80.191-179.532-179.532s80.191-179.532 179.532-179.532c99.341 0 179.532 80.191 179.532 179.532s-80.191 179.532-179.532 179.532v0z" />
<glyph unicode="&#xe901;" glyph-name="my-computer" horiz-adv-x="1126" d="M102.4 960c-56.32 0-102.4-46.080-102.4-102.4v-614.4c0-56.32 46.080-102.4 102.4-102.4h358.4v-102.4h-102.4v-102.4h409.6v102.4h-102.4v102.4h358.4c56.32 0 102.4 46.080 102.4 102.4v614.4c0 56.32-46.080 102.4-102.4 102.4h-921.6zM102.4 857.6h921.6v-614.4h-921.6v614.4zM784.823 532.308l-207.238 201.481-207.238-201.481h124.343v-161.185h165.79v161.185h124.343z" />
<glyph unicode="&#xe902;" glyph-name="fs-logo" horiz-adv-x="819" d="M390.083 79.37c-31.13-6.103-62.239-10.783-93.235-14.060-10.455-1.116-20.685 6.851-22.804 17.572-33.3 169.892-66.437 341.412-99.348 514.56-31.846 169.37 55.685 195.553 179.671 215.235 113.388 19.968 152.136 27.617 183.316 32.133 14.541 3.052 20.204 0.246 22.856-12.585 4.035-19.548 8.079-39.086 12.114-58.593 2.058-10.025-4.731-21.494-15.094-25.242-64.174-23.194-129.065-40.294-193.802-51.343-55.255-8.95-71.322-29.061-58.757-93.082 6.84-34.683 13.701-69.304 20.552-103.844 85.934 11.459 172.38 33.679 257.331 66.621 10.332 3.983 20.48-0.696 22.538-10.629 4.506-21.811 9.011-43.592 13.527-65.331 2.058-9.892-4.69-21.668-15.012-25.907-84.695-34.724-171.028-58.696-257.034-71.946 19.456-97.464 38.943-194.386 58.409-290.734 2.089-10.445-4.762-20.797-15.227-22.825v0zM777.646 376.463c-40.008 193.137-80.22 387.625-120.586 583.537-218.214-76.605-440.986-112.671-657.060-108.216 57.866-305.091 116.152-607.293 174.735-906.547 129.147 10.179 259.574 34.458 388.997 72.878-18.094 88.422-36.239 177.142-54.405 266.138 90.040 23.931 179.722 54.661 268.319 92.211v0zM608.809 39.229c57.958 94.065 115.64 190.966 172.872 290.744-71.557-30.525-143.862-56.586-216.484-78.193 14.551-71.035 29.092-141.885 43.612-212.552v0z" />
<glyph unicode="&#xe903;" glyph-name="people" horiz-adv-x="1664" d="M1101.815 521.143c121.975 0 219.672 98.011 219.672 219.429 0 121.381-97.698 219.429-219.672 219.429-121.902 0-220.37-98.048-220.37-219.429 0-121.417 98.469-219.429 220.37-219.429v0zM514.197 521.143c121.938 0 219.636 98.011 219.636 219.429 0 121.381-97.698 219.429-219.636 219.429s-220.37-98.048-220.37-219.429c0-121.417 98.432-219.429 220.37-219.429v0zM514.197 374.857c-171.154 0-514.197-85.577-514.197-256.037v-182.821h1028.395v182.821c0 170.459-343.043 256.037-514.197 256.037v0zM1101.815 374.857c-21.266 0-45.543-1.499-71.216-3.694 85.21-61.44 144.71-144.055 144.71-252.343v-182.821h440.741v182.821c0 170.459-343.043 256.037-514.234 256.037v0z" />
<glyph unicode="&#xe904;" glyph-name="admin-user" d="M512 448c67.079 0 121.717 54.637 121.717 121.717s-54.637 121.717-121.717 121.717c-67.079 0-121.717-54.637-121.717-121.717s54.637-121.717 121.717-121.717v0zM755.433 278.949c0 81.144-162.289 121.717-243.433 121.717s-243.433-40.572-243.433-121.717v-40.572h486.867v40.572zM910.222 960h-796.444c-62.578 0-113.778-51.2-113.778-113.778v-796.444c0-62.578 51.2-113.778 113.778-113.778h796.444c62.578 0 113.778 51.2 113.778 113.778v796.444c0 62.578-51.2 113.778-113.778 113.778v0zM88.889 24.889v846.222h846.222v-846.222h-846.222z" />
<glyph unicode="&#xe905;" glyph-name="admin" d="M0 846.234v-796.442c0-62.579 50.611-113.792 113.766-113.792h796.442c62.579 0 113.792 51.213 113.792 113.792v796.442c0 62.579-51.213 113.766-113.792 113.766h-796.442c-63.155 0-113.766-51.187-113.766-113.766v0zM682.662 618.662c0-94.413-76.237-170.65-170.675-170.65-94.413 0-170.65 76.237-170.65 170.65 0 94.451 76.237 170.688 170.65 170.688 94.438 0 170.675-76.237 170.675-170.688v0zM170.65 163.571c0 113.766 227.571 176.346 341.338 176.346 113.792 0 341.338-62.579 341.338-176.346v-56.896h-682.675v56.896z" />
<glyph unicode="&#xe906;" glyph-name="arrow-up" d="M512 755.2l-512-512h1024z" />
<glyph unicode="&#xe907;" glyph-name="arrow-down" d="M512 140.8l-512 512h1024z" />
<glyph unicode="&#xe908;" glyph-name="dropbox" d="M229.714 546.857l282.286-174.286-195.429-162.857-280 182.286zM793.143 229.714v-61.714l-280-167.429v-0.571l-0.571 0.571-0.571-0.571v0.571l-279.429 167.429v61.714l84-54.857 195.429 162.286v1.143l0.571-0.571 0.571 0.571v-1.143l196-162.286zM316.571 883.428l195.429-162.857-282.286-173.714-193.143 154.286zM794.286 546.857l193.143-154.857-279.429-182.286-196 162.857zM708 883.428l279.429-182.286-193.143-154.286-282.286 173.714z" />
<glyph unicode="&#xe909;" glyph-name="linkedin" d="M928 960h-832c-52.8 0-96-43.2-96-96v-832c0-52.8 43.2-96 96-96h832c52.8 0 96 43.2 96 96v832c0 52.8-43.2 96-96 96zM384 128h-128v448h128v-448zM320 640c-35.4 0-64 28.6-64 64s28.6 64 64 64c35.4 0 64-28.6 64-64s-28.6-64-64-64zM832 128h-128v256c0 35.4-28.6 64-64 64s-64-28.6-64-64v-256h-128v448h128v-79.4c26.4 36.2 66.8 79.4 112 79.4 79.6 0 144-71.6 144-160v-288z" />
<glyph unicode="&#xe90a;" glyph-name="doc" horiz-adv-x="768" d="M48-64h672c26.464 0 48 21.536 48 48v672c0 0.544-0.256 0.992-0.288 1.504-0.064 0.736-0.256 1.376-0.416 2.080-0.544 2.272-1.472 4.32-2.88 6.112-0.224 0.288-0.192 0.64-0.416 0.928l-256 288c-0.096 0.096-0.224 0.096-0.32 0.192-1.92 2.048-4.352 3.456-7.136 4.288-0.608 0.192-1.152 0.256-1.792 0.352-0.928 0.16-1.792 0.544-2.752 0.544h-448c-26.464 0-48-21.536-48-48v-928c0-26.464 21.536-48 48-48zM512 901.92l204.384-229.92h-188.384c-7.040 0-16 13.44-16 24v205.92zM32 912c0 8.832 7.2 16 16 16h432v-232c0-25.888 20.96-56 48-56h208v-656c0-8.832-7.2-16-16-16h-672c-8.96 0-16 7.040-16 16v928zM176 512h416c8.832 0 16 7.168 16 16s-7.168 16-16 16h-416c-8.832 0-16-7.168-16-16s7.168-16 16-16zM176 384h416c8.832 0 16 7.168 16 16s-7.168 16-16 16h-416c-8.832 0-16-7.168-16-16s7.168-16 16-16zM176 640h192c8.832 0 16 7.168 16 16s-7.168 16-16 16h-192c-8.832 0-16-7.168-16-16s7.168-16 16-16zM176 256h416c8.832 0 16 7.168 16 16s-7.168 16-16 16h-416c-8.832 0-16-7.168-16-16s7.168-16 16-16zM176 128h416c8.832 0 16 7.168 16 16s-7.168 16-16 16h-416c-8.832 0-16-7.168-16-16s7.168-16 16-16z" />
<glyph unicode="&#xe90b;" glyph-name="upload-file" d="M214 170.667h596v-86h-596v86zM384 256.667v256h-170l298 298 298-298h-170v-256h-256z" />
<glyph unicode="&#xe90c;" glyph-name="download-file" d="M214 170.667h596v-86h-596v86zM810 554.667l-298-298-298 298h170v256h256v-256h170z" />
<glyph unicode="&#xe90d;" glyph-name="google-drive" d="M418.56 307.2l-170.189-307.2h605.389l170.24 307.2h-605.44zM300.288 855.091l-300.288-543.488 172.646-311.501 300.339 543.488-172.698 311.501zM995.584 358.4l-312.115 563.2h-345.344l311.706-563.2h345.754z" />
<glyph unicode="&#xe90e;" glyph-name="upload" horiz-adv-x="951" d="M731.429 109.714q0 14.857-10.857 25.714t-25.714 10.857-25.714-10.857-10.857-25.714 10.857-25.714 25.714-10.857 25.714 10.857 10.857 25.714zM877.714 109.714q0 14.857-10.857 25.714t-25.714 10.857-25.714-10.857-10.857-25.714 10.857-25.714 25.714-10.857 25.714 10.857 10.857 25.714zM950.857 237.714v-182.857q0-22.857-16-38.857t-38.857-16h-841.143q-22.857 0-38.857 16t-16 38.857v182.857q0 22.857 16 38.857t38.857 16h244q12-32 40.286-52.571t63.143-20.571h146.286q34.857 0 63.143 20.571t40.286 52.571h244q22.857 0 38.857-16t16-38.857zM765.143 608q-9.714-22.857-33.714-22.857h-146.286v-256q0-14.857-10.857-25.714t-25.714-10.857h-146.286q-14.857 0-25.714 10.857t-10.857 25.714v256h-146.286q-24 0-33.714 22.857-9.714 22.286 8 39.429l256 256q10.286 10.857 25.714 10.857t25.714-10.857l256-256q17.714-17.143 8-39.429z" />
<glyph unicode="&#xe90f;" glyph-name="download" horiz-adv-x="951" d="M731.429 182.857q0 14.857-10.857 25.714t-25.714 10.857-25.714-10.857-10.857-25.714 10.857-25.714 25.714-10.857 25.714 10.857 10.857 25.714zM877.714 182.857q0 14.857-10.857 25.714t-25.714 10.857-25.714-10.857-10.857-25.714 10.857-25.714 25.714-10.857 25.714 10.857 10.857 25.714zM950.857 310.857v-182.857q0-22.857-16-38.857t-38.857-16h-841.143q-22.857 0-38.857 16t-16 38.857v182.857q0 22.857 16 38.857t38.857 16h265.714l77.143-77.714q33.143-32 77.714-32t77.714 32l77.714 77.714h265.143q22.857 0 38.857-16t16-38.857zM765.143 636q9.714-23.429-8-40l-256-256q-10.286-10.857-25.714-10.857t-25.714 10.857l-256 256q-17.714 16.571-8 40 9.714 22.286 33.714 22.286h146.286v256q0 14.857 10.857 25.714t25.714 10.857h146.286q14.857 0 25.714-10.857t10.857-25.714v-256h146.286q24 0 33.714-22.286z" />
<glyph unicode="&#xe910;" glyph-name="admin-team" d="M512 755.2v204.8h-512v-921.6h1024v716.8h-512zM204.8 140.8h-102.4v102.4h102.4v-102.4zM204.8 345.6h-102.4v102.4h102.4v-102.4zM204.8 550.4h-102.4v102.4h102.4v-102.4zM204.8 755.2h-102.4v102.4h102.4v-102.4zM409.6 140.8h-102.4v102.4h102.4v-102.4zM409.6 345.6h-102.4v102.4h102.4v-102.4zM409.6 550.4h-102.4v102.4h102.4v-102.4zM409.6 755.2h-102.4v102.4h102.4v-102.4zM921.6 140.8h-409.6v102.4h102.4v102.4h-102.4v102.4h102.4v102.4h-102.4v102.4h409.6v-512zM819.2 550.4h-102.4v-102.4h102.4v102.4zM819.2 345.6h-102.4v-102.4h102.4v102.4z" />
<glyph unicode="&#xe911;" glyph-name="settings" horiz-adv-x="922" d="M812.881 402.842c1.895 14.746 3.316 29.491 3.316 45.158s-1.421 30.413-3.316 45.158l99.959 76.032c9.001 6.912 11.37 19.354 5.685 29.491l-94.748 159.437c-5.685 10.138-18.476 13.824-28.898 10.138l-117.937-46.080c-24.634 18.432-51.164 33.638-80.062 45.158l-18.002 122.112c-1.421 11.059-11.37 19.354-23.213 19.354h-189.496c-11.843 0-21.792-8.294-23.213-19.354l-18.002-122.112c-28.898-11.52-55.427-27.187-80.062-45.158l-117.961 46.080c-10.896 4.147-23.213 0-28.898-10.138l-94.748-159.437c-6.159-10.138-3.316-22.579 5.685-29.491l99.959-76.032c-1.895-14.746-3.316-29.952-3.316-45.158s1.421-30.413 3.316-45.158l-99.959-76.032c-9.001-6.912-11.37-19.354-5.685-29.491l94.748-159.437c5.685-10.138 18.476-13.824 28.898-10.138l117.961 46.080c24.634-18.432 51.164-33.638 80.062-45.158l18.002-122.112c1.421-11.059 11.37-19.354 23.213-19.354h189.496c11.843 0 21.792 8.294 23.213 19.354l18.002 122.112c28.898 11.52 55.427 27.187 80.062 45.158l117.937-46.080c10.896-4.147 23.213 0 28.898 10.138l94.748 159.437c5.685 10.138 3.316 22.579-5.685 29.491l-99.959 76.032zM460.916 290.655c-91.432 0-165.809 72.346-165.809 161.28s74.377 161.28 165.809 161.28c91.432 0 165.809-72.346 165.809-161.28s-74.377-161.28-165.809-161.28v0z" />
<glyph unicode="&#xe912;" glyph-name="file2" horiz-adv-x="878" d="M585.143 658.286v269.714q12.571-8 20.571-16l233.143-233.143q8-8 16-20.571h-269.714zM512 640q0-22.857 16-38.857t38.857-16h310.857v-603.429q0-22.857-16-38.857t-38.857-16h-768q-22.857 0-38.857 16t-16 38.857v914.286q0 22.857 16 38.857t38.857 16h457.143v-310.857z" />
<glyph unicode="&#xe913;" glyph-name="move-to" horiz-adv-x="1280" d="M512 960h-384c-70.4 0-127.36-57.6-127.36-128l-0.64-768c0-70.4 57.6-128 128-128h1024c70.4 0 128 57.6 128 128v640c0 70.4-57.6 128-128 128h-512l-128 128zM477.867 550.4v68.267h341.333v-68.267h-341.333zM575.39 413.867h146.286v-146.286h97.524l-170.667-170.667-170.667 170.667h97.524v146.286z" />
<glyph unicode="&#xe914;" glyph-name="go-back" d="M245.12 512l357.76 357.76-90.88 90.24-512-512 512-512 90.24 90.24-357.12 357.76h778.88v128z" />
<glyph unicode="&#xe915;" glyph-name="user" d="M512 447.968c141.44 0 256 114.56 256 256.032 0 141.44-114.56 256-256 256-141.472 0-256-114.56-256-256 0-141.472 114.528-256.032 256-256.032v0zM512 320c-170.88 0-512-85.792-512-256.032v-127.968h1024v127.968c0 170.24-341.152 256.032-512 256.032v0z" />
<glyph unicode="&#xe916;" glyph-name="equalizer" d="M640 806.374c0 17.664 2.406 34.662 6.195 51.2h-646.195v-102.4h646.195c-3.789 16.538-6.195 33.536-6.195 51.2zM640 191.974c0 17.664 2.406 34.662 6.195 51.2h-646.195v-102.4h646.195c-3.789 16.538-6.195 33.536-6.195 51.2zM128 499.174c0 17.664 2.406 34.662 6.195 51.2h-134.195v-102.4h134.195c-3.789 16.538-6.195 33.536-6.195 51.2zM582.6 550.374c3.789-16.538 6.195-33.536 6.195-51.2s-2.406-34.662-6.195-51.2h441.395v102.4h-441.395zM870.4 959.974c-84.685 0-153.6-68.915-153.6-153.6s68.915-153.6 153.6-153.6c84.685 0 153.6 68.915 153.6 153.6s-68.915 153.6-153.6 153.6zM358.4 652.774c-84.685 0-153.6-68.915-153.6-153.6s68.915-153.6 153.6-153.6c84.685 0 153.6 68.915 153.6 153.6s-68.915 153.6-153.6 153.6zM870.4 345.574c-84.685 0-153.6-68.915-153.6-153.6s68.915-153.6 153.6-153.6c84.685 0 153.6 68.915 153.6 153.6s-68.915 153.6-153.6 153.6z" />
<glyph unicode="&#xe917;" glyph-name="linked-devices" horiz-adv-x="1463" d="M243.81 837.932h1097.143v122.068h-1097.143c-67.048 0-121.905-54.931-121.905-122.068v-671.373h-121.905v-183.102h853.333v183.102h-609.524v671.373zM1401.905 715.864h-365.714c-33.524 0-60.952-27.465-60.952-61.034v-610.339c0-33.569 27.429-61.034 60.952-61.034h365.714c33.524 0 60.952 27.465 60.952 61.034v610.339c0 33.569-27.429 61.034-60.952 61.034v0zM1340.952 166.559h-243.81v427.237h243.81v-427.237z" />
</font>
</defs>
</svg>
