<?xml version="1.0" encoding="utf-8"?>
<!-- Generator: Adobe Illustrator 18.1.1, SVG Export Plug-In . SVG Version: 6.00 Build 0)  -->
<!DOCTYPE svg PUBLIC "-//W3C//DTD SVG 1.1//EN" "http://www.w3.org/Graphics/SVG/1.1/DTD/svg11.dtd">
<svg version="1.1" id="Layer_1" xmlns="http://www.w3.org/2000/svg" xmlns:xlink="http://www.w3.org/1999/xlink" x="0px" y="0px"
	 viewBox="0 0 189 97.5" enable-background="new 0 0 189 97.5" xml:space="preserve">
<g>
	<path fill="#9CCB3B" d="M117.6,29.1c-2-9.6-4-19.3-6-29.1c-10.9,3.8-22,5.6-32.7,5.4c2.9,15.2,5.8,30.3,8.7,45.2
		c6.4-0.5,12.9-1.7,19.4-3.6c-0.9-4.4-1.8-8.8-2.7-13.3C108.7,32.5,113.2,30.9,117.6,29.1"/>
	<path fill="#FFFFFF" d="M106.6,10.5c-3.2,1.2-6.4,2-9.7,2.6c-2.8,0.4-3.6,1.4-2.9,4.6c0.3,1.7,0.7,3.5,1,5.2
		c4.3-0.6,8.6-1.7,12.8-3.3c0.5-0.2,1,0,1.1,0.5c0.2,1.1,0.4,2.2,0.7,3.3c0.1,0.5-0.2,1.1-0.7,1.3c-4.2,1.7-8.5,2.9-12.8,3.6
		c1,4.9,1.9,9.7,2.9,14.5c0.1,0.5-0.2,1-0.8,1.1c-1.6,0.3-3.1,0.5-4.6,0.7c-0.5,0.1-1-0.3-1.1-0.9c-1.7-8.5-3.3-17-5-25.6
		c-1.6-8.4,2.8-9.7,9-10.7c5.6-1,7.6-1.4,9.1-1.6c0.7-0.2,1,0,1.1,0.6c0.2,1,0.4,1.9,0.6,2.9C107.5,9.8,107.1,10.4,106.6,10.5"/>
	<path fill="#FFFFFF" d="M158.6,85.7h-4.4c-0.5,0-1-0.5-1-1V69c0-4.2-0.4-5.4-4.1-5.4c-1.6,0-3.4,0.7-5.4,1.7v19.3c0,0.5-0.4,1-1,1
		h-4.4c-0.5,0-1-0.5-1-1V59.5c0-0.5,0.4-1,1-1h4.2c0.5,0,1,0.4,1,1v1c2.8-1.8,4.6-2.3,7.8-2.3c6.9,0,8.3,4.7,8.3,10.8v15.7
		C159.5,85.2,159.1,85.7,158.6,85.7z"/>
	<path fill="#FFFFFF" d="M104,85.7c-1.2,0.2-2.2,0.3-3.3,0.3c-5.4,0-7.7-1.2-7.7-7.6V63.3l-4.5-0.7c-0.5-0.1-1-0.4-1-1v-2.2
		c0-0.5,0.4-1,1-1h4.5v-3.9c0-0.5,0.4-0.9,1-1l4.5-0.8c0,0,0.1,0,0.2,0c0.4,0,0.8,0.2,0.8,0.7v5h4.3c0.5,0,1,0.4,1,1v2.8
		c0,0.5-0.4,1-1,1h-4.3v15.1c0,2.4,0.1,2.7,1.9,2.7h2.6c0.6,0,1,0.2,1,0.7v3C104.9,85.4,104.6,85.6,104,85.7z"/>
	<path fill="#FFFFFF" d="M121.3,63.6c-2.6,0-4.6,0.7-6.6,1.7v19.3c0,0.5-0.4,1-1,1h-4.4c-0.5,0-1-0.5-1-1V59.5c0-0.5,0.4-1,1-1h4.2
		c0.5,0,1,0.4,1,1v1c2.4-1.8,5-2.3,6.9-2.3c0.5,0,1,0.4,1,1v3.5C122.2,63.2,121.8,63.6,121.3,63.6z"/>
	<path fill="#FFFFFF" d="M131,54.9h-4.7c-0.5,0-1-0.4-1-1v-4.2c0-0.5,0.5-1,1-1h4.7c0.5,0,1,0.4,1,1V54
		C132,54.5,131.6,54.9,131,54.9z M130.9,85.7h-4.4c-0.5,0-1-0.5-1-1V59.5c0-0.5,0.4-1,1-1h4.4c0.5,0,1,0.4,1,1v25.2
		C131.9,85.2,131.4,85.7,130.9,85.7z"/>
	<path fill="#FFFFFF" d="M109.2,45.9c2.9-4.7,5.8-9.5,8.6-14.5c-3.6,1.5-7.2,2.8-10.8,3.9C107.7,38.8,108.5,42.4,109.2,45.9"/>
	<path fill="#FFFFFF" d="M20.3,55.3h-9.8c-2.8,0-3.8,1-3.8,4.1v5.2h13c0.5,0,1,0.4,1,1V69c0,0.5-0.4,1-1,1h-13v14.7c0,0.5-0.4,1-1,1
		H1c-0.5,0-1-0.4-1-1V59.4c0-8.2,4.9-9.9,11.1-9.9c5.7,0,7.6,0.4,9.1,0.7c0.7,0.1,1,0.3,1,1v3.1C21.2,54.8,20.8,55.3,20.3,55.3z"/>
	<path fill="#FFFFFF" d="M29.9,54.9h-4.7c-0.5,0-1-0.4-1-1v-4.2c0-0.5,0.5-1,1-1h4.7c0.5,0,1,0.4,1,1V54
		C30.9,54.5,30.5,54.9,29.9,54.9z M29.8,85.7h-4.4c-0.5,0-1-0.5-1-1V59.5c0-0.5,0.4-1,1-1h4.4c0.5,0,1,0.4,1,1v25.2
		C30.8,85.2,30.3,85.7,29.8,85.7z"/>
	<path fill="#FFFFFF" d="M41.9,85.7h-4.5c-0.5,0-1-0.5-1-1V50c0-0.5,0.4-1,1-1h4.5c0.5,0,0.9,0.4,0.9,1v34.6
		C42.8,85.2,42.4,85.7,41.9,85.7z"/>
	<path fill="#FFFFFF" d="M69.5,74.3H53.9v0.1c0,2.8,1.2,6.1,5.8,6.1c3.5,0,6.8-0.3,8.9-0.5c0,0,0.1,0,0.1,0c0.5,0,0.9,0.2,0.9,0.7
		V84c0,0.8-0.1,1.1-1,1.3c-3.1,0.6-5,0.8-9.3,0.8c-4.8,0-11.6-2.6-11.6-12.1v-3.6c0-7.5,4.2-12.2,11.5-12.2
		c7.4,0,11.5,5.1,11.5,12.2v2.7C70.5,73.9,70.2,74.3,69.5,74.3z M64.1,69.6c0-3.8-2.1-5.9-5.1-5.9c-3,0-5.1,2.1-5.1,5.9v0.2h10.2
		V69.6z"/>
	<g>
		<path fill="#FFFFFF" d="M84,65.4L77.5,58c-3.2-3.7-4.9-6.6-4.5-10.1c0.5-4.4,4.7-8.5,10.4-10L83,36.2c-8.7,2-14.8,7.6-15.5,13.6
			c-0.4,3.5,1.2,7.4,4.8,11.5l6.3,7c3,3.4,4.3,6.8,3.9,10.1c-0.7,6.5-7.7,12.9-17.2,14l0.3,1.6c5.8-0.8,11.1-2.9,15.5-6.5
			c4-3.2,6.5-7.4,6.9-11C88.5,72.7,87.1,68.9,84,65.4z"/>
	</g>
	<g>
		<path fill="#FFFFFF" d="M188.6,89.2c-0.3,1.4-0.9,2.7-1.9,3.9c-0.9,1.2-2.3,2.3-4.1,3.1c-1.8,0.8-4.2,1.3-7.2,1.3
			c-1.3,0-2.6-0.2-3.9-0.5c-1.3-0.3-2.6-0.9-3.7-1.6c-1.1-0.7-2-1.6-2.7-2.7c-0.7-1.1-1.1-2.4-1.2-4h7.2c0.3,1.4,1,2.4,2,2.9
			c1,0.5,2.1,0.8,3.4,0.8c2,0,3.5-0.6,4.4-1.9c0.9-1.3,1.4-2.9,1.3-4.8v-3.6h-0.1c-0.8,1.4-1.9,2.5-3.3,3.2c-1.4,0.7-3,1-4.5,1
			c-2,0-3.7-0.4-5.1-1.1c-1.4-0.7-2.6-1.7-3.5-3c-0.9-1.3-1.6-2.7-2-4.4c-0.4-1.7-0.6-3.5-0.6-5.3c0-1.8,0.2-3.5,0.7-5.1
			c0.5-1.6,1.2-3.1,2.2-4.3c0.9-1.3,2.1-2.3,3.5-3c1.4-0.7,3-1.1,4.9-1.1c1.7,0,3.2,0.3,4.5,1c1.3,0.7,2.4,1.8,3.3,3.4h0.1v-3.7h6.9
			v25.7C189,86.5,188.9,87.8,188.6,89.2z M178.7,80.1c0.8-0.4,1.4-1,1.9-1.7c0.5-0.7,0.9-1.5,1.1-2.4c0.3-0.9,0.4-1.8,0.4-2.8
			c0-1.1-0.1-2.2-0.3-3.2c-0.2-1-0.5-1.9-1-2.7c-0.5-0.8-1.1-1.4-1.9-1.9c-0.8-0.5-1.8-0.7-2.9-0.7c-1,0-1.9,0.2-2.6,0.6
			s-1.3,1-1.8,1.7c-0.5,0.7-0.8,1.6-1.1,2.5c-0.2,0.9-0.3,1.9-0.3,2.9c0,1,0.1,2,0.3,2.9s0.5,1.8,1,2.6c0.5,0.8,1.1,1.4,1.8,1.9
			c0.7,0.5,1.7,0.7,2.8,0.7C177.1,80.7,178,80.5,178.7,80.1z"/>
	</g>
</g>
</svg>
