<?xml version="1.0" encoding="utf-8"?>
<!-- Generator: Adobe Illustrator 18.0.0, SVG Export Plug-In . SVG Version: 6.00 Build 0)  -->
<!DOCTYPE svg PUBLIC "-//W3C//DTD SVG 1.1//EN" "http://www.w3.org/Graphics/SVG/1.1/DTD/svg11.dtd">
<svg version="1.1" id="Layer_1" xmlns="http://www.w3.org/2000/svg" xmlns:xlink="http://www.w3.org/1999/xlink" x="0px" y="0px"
	 viewBox="0 0 50 50" style="enable-background:new 0 0 50 50;" xml:space="preserve">
<style type="text/css">
	.st0{fill:#9CCB3B;}
	.st1{fill:#FFFFFF;}
</style>
<path class="st0" d="M42,50H8c-4.4,0-8-3.6-8-8V8c0-4.4,3.6-8,8-8h34c4.4,0,8,3.6,8,8v34C50,46.4,46.4,50,42,50z"/>
<g>
	<path class="st1" d="M38,27.6c-1.3-6.5-2.7-13-4-19.6c-7.3,2.6-14.8,3.8-22,3.6C13.8,21.8,15.8,32,17.8,42c4.3-0.3,8.7-1.2,13-2.4
		c-0.6-3-1.2-5.9-1.8-8.9C32,29.8,35,28.8,38,27.6"/>
	<path class="st0" d="M30.6,15.1c-2.2,0.8-4.3,1.4-6.5,1.7c-1.9,0.3-2.4,1-2,3.1c0.2,1.2,0.5,2.3,0.7,3.5c2.9-0.4,5.8-1.1,8.6-2.2
		c0.3-0.1,0.7,0,0.8,0.4c0.2,0.7,0.3,1.5,0.5,2.2c0.1,0.3-0.2,0.7-0.5,0.9c-2.8,1.2-5.7,2-8.6,2.4c0.7,3.3,1.3,6.5,2,9.7
		c0.1,0.3-0.2,0.7-0.5,0.8c-1,0.2-2.1,0.4-3.1,0.5c-0.4,0-0.7-0.2-0.8-0.6c-1.1-5.7-2.2-11.4-3.3-17.2c-1.1-5.7,1.9-6.6,6-7.2
		c3.8-0.7,5.1-0.9,6.1-1.1c0.5-0.1,0.7,0,0.8,0.4c0.1,0.7,0.3,1.3,0.4,2C31.2,14.6,30.9,15,30.6,15.1"/>
	<path class="st1" d="M32.3,38.9c1.9-3.2,3.9-6.4,5.8-9.7c-2.4,1-4.8,1.9-7.3,2.6C31.3,34.1,31.8,36.5,32.3,38.9"/>
</g>
</svg>
