<?xml version="1.0" encoding="utf-8"?>
<!-- Generator: Adobe Illustrator 18.1.1, SVG Export Plug-In . SVG Version: 6.00 Build 0)  -->
<!DOCTYPE svg PUBLIC "-//W3C//DTD SVG 1.1//EN" "http://www.w3.org/Graphics/SVG/1.1/DTD/svg11.dtd">
<svg version="1.1" id="Layer_1" xmlns="http://www.w3.org/2000/svg" xmlns:xlink="http://www.w3.org/1999/xlink" x="0px" y="0px"
	 viewBox="-189 91 20 20" enable-background="new -189 91 20 20" xml:space="preserve">
<path fill="#6E7982" d="M-175.1,91h-7.8c-1.1,0-2,0.9-2,2V109c0,1.1,0.9,2,2,2h7.8c1.1,0,2-0.9,2-2V93C-173.1,91.9-174,91-175.1,91z
	 M-179,110.2c-0.8,0-1.4-0.5-1.4-1c0-0.6,0.6-1,1.4-1c0.8,0,1.4,0.5,1.4,1C-177.6,109.7-178.2,110.2-179,110.2z M-174.7,107.1h-8.6
	V93.7h8.6V107.1z"/>
</svg>
